<svg xmlns="http://www.w3.org/2000/svg" width="2360" height="1640" shape-rendering="geometricPrecision" image-rendering="optimizeQuality" fill-rule="evenodd" xmlns:v="https://vecta.io/nano"><path d="M2359.5 1030.5v12c-8.04 4.35-16.38 8.19-25 11.5-3.52 1.73-7.18 2.4-11 2a55.58 55.58 0 0 1-7-8c-15.31-12.66-31.98-23.33-50-32-16.17-12.93-33.84-23.595-53-32-13.53-9.267-27.86-17.267-43-24l-17-11c-25.96-13.099-52.29-25.432-79-37-9.56-6.951-19.9-12.617-31-17-.84-1.011-1.17-2.178-1-3.5-15.26-4.765-30.93-6.931-47-6.5-6.2-3.197-11.54-7.53-16-13-9.5-6.827-19.5-12.827-30-18-17.35.341-33.02 5.674-47 16l14.5 16.5a68.1 68.1 0 0 1 2.5 6c-.5 1.381-1.5 2.047-3 2a1145.91 1145.91 0 0 0-33-23.5c-12.7-3.788-24.7-9.121-36-16a345.83 345.83 0 0 0-21-3.5 165.16 165.16 0 0 0-35 23.5 336 336 0 0 0-53 38 131.11 131.11 0 0 1-37 17c-12.33.121-24.67-.212-37-1a498.63 498.63 0 0 1-37-9 1009.31 1009.31 0 0 0-48-16 351.46 351.46 0 0 0-46-20l-98-25c-20.23-6.783-40.23-14.117-60-22a593.65 593.65 0 0 1-84-19.5 124.11 124.11 0 0 1-5.5 14c-11 10.51-24.17 16.51-39.5 18a137.45 137.45 0 0 0-20-.5c-6.09-2.724-12.42-4.057-19-4 8.04 18.071 19.71 33.404 35 46 13.87 10.774 28.87 19.774 45 27l38 12c7.94 4.944 15.61 10.277 23 16 61.9 30.281 123.23 61.61 184 94a314.4 314.4 0 0 1 38 12l15 17c6.13 3.07 12.46 5.57 19 7.5 4.16 4.99 8.82 9.49 14 13.5 15.49 12.57 31.15 24.91 47 37 22.65 22.64 43.82 46.48 63.5 71.5 1.36-.88 2.86-1.21 4.5-1 .32 2.22-.34 4.06-2 5.5a85.36 85.36 0 0 1 13.5 17.5c.73-3.01 2.56-5.01 5.5-6 1.77.77 2.77 2.1 3 4-4 12.33-9.83 23.66-17.5 34a60.69 60.69 0 0 0-4.5 11.5c-2.78.78-5.28.28-7.5-1.5a809.88 809.88 0 0 1-97 13c-4.07-.59-5.24-2.75-3.5-6.5 14.68-1.12 29.35-2.46 44-4a121.81 121.81 0 0 0 15-3.5 224.34 224.34 0 0 1-9.5-15c-2.04-2.1-4.54-3.27-7.5-3.5a90.05 90.05 0 0 0-19 0c-12.24 4.02-24.24 8.52-36 13.5-.21-1.64.12-3.14 1-4.5 9.42-4.59 19.09-8.59 29-12a70.36 70.36 0 0 1 27-2c-6.18-9.36-12.85-18.36-20-27-11.31-1.94-20.81 1.23-28.5 9.5a161.34 161.34 0 0 0-18 39l-28 56c-9.24 24.45-5.58 46.79 11 67 5.33 5.66 11.49 10.16 18.5 13.5a415.07 415.07 0 0 0 74 20c50.25 9.56 100.92 15.56 152 18l72 8c46.87 9.62 94.21 14.62 142 15 10.51-.61 20.84-2.27 31-5 21.26-6.2 42.26-13.2 63-21 23.1-5.25 46.1-10.92 69-17a1341.47 1341.47 0 0 0 79-31c25.01-.65 50.01-.49 75 .5v11a592.39 592.39 0 0 0-70-1.5l-81 31-65 16c-22.12 7.93-44.46 15.26-67 22-17.26 3.98-34.76 6.14-52.5 6.5l-75.5-7.5a1397.13 1397.13 0 0 0-172-20 1472.7 1472.7 0 0 1-144-24 399.67 399.67 0 0 1-36-12c-13.78-6.11-23.94-15.94-30.5-29.5-3.47-8.42-6.14-17.09-8-26a82.12 82.12 0 0 1 1.5-25.5c-.08-1.89-.41-3.73-1-5.5 15.68-27.69 29.51-56.36 41.5-86a210.24 210.24 0 0 0 9-17c7.05-9.45 16.55-14.61 28.5-15.5l-10.5-14.5a641.26 641.26 0 0 0-27-58 565.4 565.4 0 0 1-15-44c-7.63-6.75-14.46-14.25-20.5-22.5-13.28-4.54-26.61-8.87-40-13a5838.75 5838.75 0 0 0-182-93l-25-17c-45.68-9.407-82.51-32.574-110.5-69.5-7.61-12.82-12.44-26.653-14.5-41.5a115.57 115.57 0 0 0 3.5-12.5c16.02-13.775 34.52-18.609 55.5-14.5l70 13c2.82 2.613 6.16 4.279 10 5 18.06 3.39 36.06 7.056 54 11 16.43 6.922 33.1 13.256 50 19 33.5 9.301 67.17 17.967 101 26 16.68 6.174 33.01 13.174 49 21l52 17a174.32 174.32 0 0 0 56.5 8.5 86.32 86.32 0 0 0 33.5-13.5 474.28 474.28 0 0 1 52-37 270.31 270.31 0 0 0 22-17 145.64 145.64 0 0 1 20-11c9.78-.318 19.45.682 29 3a429.1 429.1 0 0 1 25 12 80.17 80.17 0 0 0 18 5.5c17.3-12.488 36.63-18.655 58-18.5a54.68 54.68 0 0 1 18 8 291.96 291.96 0 0 0 19 13c2.72 4.384 6.38 7.718 11 10 16.1-.372 31.76 1.961 47 7 11.2 7.182 22.53 14.182 34 21 28.34 12.562 56.34 25.895 84 40 13.36 8.682 27.36 16.349 42 23l13 9c19.13 8.391 36.8 19.058 53 32 20.27 9.62 38.6 21.95 55 37 3.07-.02 6.07-.68 9-2a186.21 186.21 0 0 1 23-11.5zm-1133-221c7.01-.166 14.01 0 21 .5l38 7.5c-2.28 3.387-4.11 7.053-5.5 11-3.86 1.193-6.36 3.693-7.5 7.5-7.73 4.472-16.06 6.972-25 7.5-13.49-.57-26.82-2.403-40-5.5-.81-.308-1.47-.808-2-1.5-1.8-4.778-1.97-9.778-.5-15 6.37-5.566 13.54-9.566 21.5-12zm371 273l65 51.5a843 843 0 0 1 60 69.5 230.1 230.1 0 0 1-18 9.5c-4.75 3.76-9.75 7.09-15 10-1.33 1.33-1.33 2.67 0 4 2.52.26 4.85-.41 7-2 8.67-7.34 18.34-13.17 29-17.5 6.18 6.52 11.51 13.69 16 21.5a490.06 490.06 0 0 0-15 26 604.41 604.41 0 0 1-34 6.5c-1.59-.51-2.75-1.51-3.5-3-9.64-16.33-20.14-32.16-31.5-47.5 1.35-2.79.85-5.29-1.5-7.5-2.63-1.63-4.96-3.63-7-6l-14-20a788.96 788.96 0 0 0-27-59c-4.04-11.14-7.88-22.3-11.5-33.5.75-.67 1.09-1.5 1-2.5z" opacity=".62"/><path d="M1465.5 873.5c2.42.757 3.75 2.423 4 5-1.09 9.927-6.42 16.427-16 19.5-4.21 1.854-8.54 2.854-13 3-1.71-1.133-2.21-2.633-1.5-4.5 12.08-3.909 20.91-11.575 26.5-23z" opacity=".6"/><path d="M1486.5 882.5c1.93 1.28 3.77 1.946 5.5 2 .67 1.333.67 2.667 0 4-13.83 16.172-30.66 28.006-50.5 35.5-3.15 1.035-5.82.368-8-2 3.47-1.912 7.14-3.579 11-5a221.4 221.4 0 0 1 29-19c5.3-4.455 9.63-9.621 13-15.5z" opacity=".616"/><path d="M1997.5 959.5a8.43 8.43 0 0 1 4 .5c14.73 10.392 29.73 20.392 45 30 38.29 21.48 77.62 40.81 118 58 21.08 7.47 42.42 14.14 64 20 1.02 1.05 1.18 2.22.5 3.5-5.37 1.33-10.71 1-16-1-1.9 1.68-4.06 2.18-6.5 1.5-40.71-13.9-80.71-29.57-120-47-33.06-16.81-62.9-37.648-89.5-62.5-.47-1.077-.3-2.077.5-3z" opacity=".709"/><path d="M1748.5 972.5c10.55 6.434 13.72 15.434 9.5 27a17.99 17.99 0 0 1-9.5 4.5l-27 3.5c-.27-1.95.39-3.45 2-4.5 9.02-1.08 18.02-2.41 27-4 4.65-2.897 6.15-7.063 4.5-12.5-2.45-4.115-5.28-7.948-8.5-11.5.88-.708 1.55-1.542 2-2.5z" opacity=".453"/></svg>