<?xml version="1.0" standalone="no"?>
<!DOCTYPE svg PUBLIC "-//W3C//DTD SVG 20010904//EN"
 "http://www.w3.org/TR/2001/REC-SVG-20010904/DTD/svg10.dtd">
<svg version="1.0" xmlns="http://www.w3.org/2000/svg"
 width="220.000000pt" height="95.000000pt" viewBox="0 0 220.000000 95.000000"
 preserveAspectRatio="xMidYMid meet">

<g transform="translate(0.000000,95.000000) scale(0.100000,-0.100000)"
fill="#000000" stroke="none">
<path d="M293 760 c-14 -6 -23 -18 -23 -31 0 -15 4 -19 16 -15 9 3 18 6 20 6
2 0 4 8 5 18 0 10 3 12 6 5 2 -7 11 -13 19 -13 8 0 14 -4 14 -10 0 -5 -4 -10
-10 -10 -5 0 -10 -5 -10 -11 0 -6 7 -9 16 -7 22 4 30 68 10 68 -8 0 -20 2 -28
4 -7 3 -23 1 -35 -4z"/>
<path d="M413 760 c-16 -7 -21 -16 -19 -37 2 -17 10 -29 20 -31 14 -3 16 1 10
24 -5 18 -3 25 4 20 6 -3 13 0 15 6 3 8 6 6 6 -4 1 -10 6 -18 13 -18 6 0 4 -6
-6 -13 -16 -12 -16 -15 -4 -19 16 -7 32 1 35 17 1 6 5 18 8 27 5 13 0 20 -20
28 -31 12 -33 12 -62 0z"/>
<path d="M285 693 c-3 -10 1 -13 12 -11 9 2 18 8 20 14 5 16 -25 13 -32 -3z"/>
<path d="M370 660 c0 -5 7 -10 15 -10 8 0 15 5 15 10 0 6 -7 10 -15 10 -8 0
-15 -4 -15 -10z"/>
<path d="M467 654 c6 -15 23 -19 23 -5 0 5 -7 11 -14 14 -10 4 -13 1 -9 -9z"/>
<path d="M283 645 c0 -8 4 -12 9 -9 5 3 6 10 3 15 -9 13 -12 11 -12 -6z"/>
<path d="M120 590 c0 -39 3 -42 64 -81 50 -31 63 -44 59 -59 -5 -19 -6 -19
-45 1 -37 19 -42 19 -56 5 -25 -25 13 -69 64 -76 54 -7 56 -30 3 -30 -58 0
-100 -50 -65 -79 11 -10 27 -6 73 19 32 18 50 25 41 17 -19 -15 -25 -43 -8
-32 6 3 10 4 10 1 0 -2 -31 -24 -70 -47 -69 -43 -70 -44 -70 -86 l0 -43 44 0
c43 0 44 0 86 70 23 39 44 70 47 70 2 0 1 -5 -3 -12 -5 -8 0 -9 15 -5 15 4 21
2 18 -6 -3 -7 -12 -28 -21 -49 -14 -33 -14 -37 0 -49 24 -20 48 2 56 52 4 24
12 45 18 47 5 2 10 15 10 28 0 14 -4 22 -10 19 -5 -3 -10 -1 -10 4 0 6 -5 11
-11 11 -6 0 -8 -7 -5 -16 5 -14 4 -15 -9 -4 -12 10 -18 10 -32 -1 -16 -13 -17
-12 -4 4 7 9 10 17 5 17 -5 0 -17 13 -26 29 -13 24 -13 29 -2 24 8 -3 14 0 14
6 0 6 -10 12 -22 12 -18 1 -19 2 -5 6 9 2 15 9 12 14 -4 5 -1 9 4 9 6 0 11 5
11 11 0 6 -7 8 -17 5 -10 -4 -14 -4 -10 0 4 4 -1 13 -11 21 -15 13 -15 13 4 4
19 -9 23 -7 30 17 4 15 7 30 6 34 -1 4 6 4 15 1 13 -5 15 -2 10 11 -4 10 -7
20 -7 22 0 2 -7 4 -16 4 -8 0 -12 -4 -9 -10 3 -5 4 -10 1 -10 -2 0 -24 32 -47
70 -43 69 -44 70 -86 70 l-43 0 0 -40z m165 -148 c-3 -3 -11 0 -18 7 -9 10 -8
11 6 5 10 -3 15 -9 12 -12z"/>
<path d="M445 620 c-16 -7 -17 -9 -3 -9 9 -1 20 4 23 9 7 11 7 11 -20 0z"/>
<path d="M537 593 c-13 -21 -36 -58 -51 -81 -26 -42 -29 -81 -5 -66 8 4 9 3 5
-4 -4 -6 -8 -33 -10 -60 l-4 -48 67 -37 c62 -33 69 -35 84 -20 15 15 14 18 -4
45 -17 23 -27 28 -64 28 -35 0 -43 3 -39 15 4 10 19 15 43 15 30 0 42 6 60 31
13 17 21 31 19 33 -1 1 -11 7 -20 15 -14 10 -24 8 -62 -14 -44 -26 -44 -26
-39 -4 4 15 3 20 -5 15 -7 -4 -12 -5 -12 -3 0 3 34 26 75 52 73 45 75 48 75
86 l0 39 -45 0 c-41 0 -47 -3 -68 -37z"/>
<path d="M318 613 c7 -3 16 -2 19 1 4 3 -2 6 -13 5 -11 0 -14 -3 -6 -6z"/>
<path d="M303 589 c-9 -9 -5 -26 17 -68 26 -53 31 -57 63 -57 20 0 33 4 30 9
-3 5 3 6 14 3 13 -4 25 0 33 9 17 21 5 31 -16 14 -13 -11 -12 -5 4 28 20 37
21 74 3 73 -18 -1 -41 -31 -41 -54 0 -18 -7 -29 -22 -35 -21 -8 -24 -5 -28 27
-6 40 -39 69 -57 51z"/>
<path d="M1060 545 c0 -19 -5 -35 -11 -35 -7 0 -9 11 -6 26 3 16 1 22 -5 16
-15 -15 -5 -46 15 -50 14 -3 17 4 17 37 0 23 -2 41 -5 41 -3 0 -5 -16 -5 -35z"/>
<path d="M1464 569 c-3 -6 -2 -15 3 -20 5 -5 9 -1 9 11 0 23 -2 24 -12 9z"/>
<path d="M812 540 c0 -14 2 -19 5 -12 2 6 2 18 0 25 -3 6 -5 1 -5 -13z"/>
<path d="M1524 546 c-8 -21 2 -46 18 -45 10 0 10 2 1 6 -7 2 -13 13 -13 24 0
20 15 26 23 9 3 -6 4 -5 3 2 -4 19 -25 21 -32 4z"/>
<path d="M1572 525 c0 -16 2 -22 5 -12 2 9 2 23 0 30 -3 6 -5 -1 -5 -18z"/>
<path d="M1496 526 c6 -16 4 -18 -14 -14 -12 4 -20 2 -16 -3 7 -12 31 -11 40
2 3 6 1 16 -5 22 -9 9 -10 7 -5 -7z"/>
<path d="M840 510 c-9 -6 -10 -10 -3 -10 6 0 15 5 18 10 8 12 4 12 -15 0z"/>
<path d="M1120 510 c-9 -6 -10 -10 -3 -10 6 0 15 5 18 10 8 12 4 12 -15 0z"/>
<path d="M1738 503 c7 -3 16 -2 19 1 4 3 -2 6 -13 5 -11 0 -14 -3 -6 -6z"/>
<path d="M830 456 c0 -2 7 -7 16 -10 8 -3 12 -2 9 4 -6 10 -25 14 -25 6z"/>
<path d="M371 437 c-6 -6 -11 -18 -11 -28 0 -11 -7 -15 -25 -14 -18 2 -24 -1
-22 -14 4 -27 45 -61 73 -61 29 0 63 34 64 64 0 14 -5 17 -25 12 -19 -5 -23
-3 -19 9 8 21 -20 47 -35 32z"/>
<path d="M1093 415 c0 -22 2 -30 4 -17 2 12 2 30 0 40 -3 9 -5 -1 -4 -23z"/>
<path d="M1693 415 c0 -22 2 -30 4 -17 2 12 2 30 0 40 -3 9 -5 -1 -4 -23z"/>
<path d="M896 427 c3 -10 9 -15 12 -12 3 3 0 11 -7 18 -10 9 -11 8 -5 -6z"/>
<path d="M1589 408 c4 -28 6 -29 9 -9 2 13 0 27 -5 32 -6 6 -7 -3 -4 -23z"/>
<path d="M1542 405 c0 -16 2 -22 5 -12 2 9 2 23 0 30 -3 6 -5 -1 -5 -18z"/>
<path d="M1562 405 c0 -16 2 -22 5 -12 2 9 2 23 0 30 -3 6 -5 -1 -5 -18z"/>
<path d="M1642 405 c0 -16 2 -22 5 -12 2 9 2 23 0 30 -3 6 -5 -1 -5 -18z"/>
<path d="M1660 411 c0 -11 4 -22 9 -25 4 -3 6 6 3 19 -5 30 -12 33 -12 6z"/>
<path d="M844 400 c0 -13 4 -16 10 -10 7 7 7 13 0 20 -6 6 -10 3 -10 -10z"/>
<path d="M1124 393 c1 -19 5 -28 10 -23 6 6 5 18 -1 32 -10 21 -10 21 -9 -9z"/>
<path d="M1610 395 c0 -8 4 -15 10 -15 5 0 7 7 4 15 -4 8 -8 15 -10 15 -2 0
-4 -7 -4 -15z"/>
<path d="M1467 389 c7 -7 15 -10 18 -7 3 3 -2 9 -12 12 -14 6 -15 5 -6 -5z"/>
<path d="M1510 390 c0 -5 5 -10 11 -10 5 0 7 5 4 10 -3 6 -8 10 -11 10 -2 0
-4 -4 -4 -10z"/>
<path d="M813 295 c0 -22 2 -30 4 -17 2 12 2 30 0 40 -3 9 -5 -1 -4 -23z"/>
<path d="M963 295 c0 -22 2 -30 4 -17 2 12 2 30 0 40 -3 9 -5 -1 -4 -23z"/>
<path d="M983 295 c0 -22 2 -30 4 -17 2 12 2 30 0 40 -3 9 -5 -1 -4 -23z"/>
<path d="M480 305 c0 -9 -7 -18 -15 -21 -8 -4 -12 -10 -9 -15 3 -5 -7 -4 -21
1 -15 6 -28 10 -31 10 -2 0 -4 -31 -4 -68 0 -59 3 -72 24 -91 l24 -23 11 21
c9 16 8 29 -4 57 -19 45 -19 44 1 44 11 0 14 6 10 18 -7 21 -1 13 56 -79 37
-58 38 -59 83 -59 l45 0 0 40 c0 39 -3 42 -65 82 -40 26 -65 48 -65 59 0 10
-9 23 -20 29 -16 9 -20 8 -20 -5z"/>
<path d="M832 285 c0 -16 2 -22 5 -12 2 9 2 23 0 30 -3 6 -5 -1 -5 -18z"/>
<path d="M862 285 c0 -16 2 -22 5 -12 2 9 2 23 0 30 -3 6 -5 -1 -5 -18z"/>
<path d="M1002 285 c0 -16 2 -22 5 -12 2 9 2 23 0 30 -3 6 -5 -1 -5 -18z"/>
<path d="M1462 285 c0 -16 2 -22 5 -12 2 9 2 23 0 30 -3 6 -5 -1 -5 -18z"/>
<path d="M1642 290 c0 -14 2 -19 5 -12 2 6 2 18 0 25 -3 6 -5 1 -5 -13z"/>
<path d="M1692 285 c0 -16 2 -22 5 -12 2 9 2 23 0 30 -3 6 -5 -1 -5 -18z"/>
<path d="M1892 285 c0 -16 2 -22 5 -12 2 9 2 23 0 30 -3 6 -5 -1 -5 -18z"/>
<path d="M1922 285 c0 -16 2 -22 5 -12 2 9 2 23 0 30 -3 6 -5 -1 -5 -18z"/>
<path d="M1992 285 c0 -16 2 -22 5 -12 2 9 2 23 0 30 -3 6 -5 -1 -5 -18z"/>
<path d="M2022 285 c0 -16 2 -22 5 -12 2 9 2 23 0 30 -3 6 -5 -1 -5 -18z"/>
<path d="M911 284 c0 -11 3 -14 6 -6 3 7 2 16 -1 19 -3 4 -6 -2 -5 -13z"/>
<path d="M1810 286 c0 -8 4 -17 9 -20 5 -4 7 3 4 14 -6 23 -13 26 -13 6z"/>
<path d="M1940 286 c0 -8 4 -17 9 -20 5 -4 7 3 4 14 -6 23 -13 26 -13 6z"/>
<path d="M1020 270 c0 -6 7 -10 15 -10 8 0 15 2 15 4 0 2 -7 6 -15 10 -8 3
-15 1 -15 -4z"/>
<path d="M1710 269 c0 -5 9 -9 20 -9 11 0 20 2 20 4 0 2 -9 6 -20 9 -11 3 -20
1 -20 -4z"/>
<path d="M1493 175 c0 -22 2 -30 4 -17 2 12 2 30 0 40 -3 9 -5 -1 -4 -23z"/>
<path d="M1853 175 c0 -22 2 -30 4 -17 2 12 2 30 0 40 -3 9 -5 -1 -4 -23z"/>
<path d="M831 178 c9 -7 18 -20 22 -28 4 -12 6 -12 6 2 1 10 -9 22 -21 28 -20
9 -21 9 -7 -2z"/>
<path d="M873 175 c-7 -21 -2 -24 22 -14 18 7 18 8 2 8 -10 1 -15 6 -12 11 3
6 4 10 0 10 -3 0 -8 -7 -12 -15z"/>
<path d="M1012 165 c0 -16 2 -22 5 -12 2 9 2 23 0 30 -3 6 -5 -1 -5 -18z"/>
<path d="M1033 175 c-3 -9 -3 -18 -1 -21 3 -3 8 4 11 16 6 23 -1 27 -10 5z"/>
<path d="M1772 165 c0 -16 2 -22 5 -12 2 9 2 23 0 30 -3 6 -5 -1 -5 -18z"/>
<path d="M1790 165 c0 -14 2 -25 4 -25 2 0 6 11 8 25 3 14 1 25 -3 25 -5 0 -9
-11 -9 -25z"/>
<path d="M1882 170 c0 -14 2 -19 5 -12 2 6 2 18 0 25 -3 6 -5 1 -5 -13z"/>
<path d="M1510 166 c0 -8 4 -17 9 -20 5 -4 7 3 4 14 -6 23 -13 26 -13 6z"/>
<path d="M1641 164 c0 -11 3 -14 6 -6 3 7 2 16 -1 19 -3 4 -6 -2 -5 -13z"/>
<path d="M1690 166 c0 -8 4 -17 9 -20 5 -4 7 3 4 14 -6 23 -13 26 -13 6z"/>
<path d="M1098 163 c7 -3 16 -2 19 1 4 3 -2 6 -13 5 -11 0 -14 -3 -6 -6z"/>
<path d="M1616 157 c3 -10 9 -15 12 -12 3 3 0 11 -7 18 -10 9 -11 8 -5 -6z"/>
</g>
</svg>
