<?xml version="1.0" encoding="UTF-8"?>
<!DOCTYPE svg PUBLIC "-//W3C//DTD SVG 1.1//EN" "http://www.w3.org/Graphics/SVG/1.1/DTD/svg11.dtd">
<svg xmlns="http://www.w3.org/2000/svg" version="1.1" width="2360px" height="1640px" style="shape-rendering:geometricPrecision; text-rendering:geometricPrecision; image-rendering:optimizeQuality; fill-rule:evenodd; clip-rule:evenodd" xmlns:xlink="http://www.w3.org/1999/xlink">
<g><path style="opacity:0.565" fill="#000000" d="M 667.5,439.5 C 668.822,439.33 669.989,439.663 671,440.5C 674.917,461.166 679.917,481.499 686,501.5C 688.816,500.338 691.65,499.171 694.5,498C 696.472,494.08 697.639,489.914 698,485.5C 699.011,484.663 700.178,484.33 701.5,484.5C 702.833,488.167 702.833,491.833 701.5,495.5C 703.827,495.335 705.993,494.669 708,493.5C 707.885,475.836 707.885,458.169 708,440.5C 709.333,439.167 710.667,439.167 712,440.5C 712.24,443.362 713.407,445.695 715.5,447.5C 714.37,462.25 715.204,476.916 718,491.5C 722.642,489.463 727.475,487.963 732.5,487C 734.104,483.656 736.104,483.156 738.5,485.5C 745.629,482.884 752.962,481.218 760.5,480.5C 760.5,481.833 760.5,483.167 760.5,484.5C 752.718,486.029 745.051,488.029 737.5,490.5C 734.053,495.862 731.386,501.529 729.5,507.5C 745.56,508.449 759.394,514.449 771,525.5C 769.438,515.018 767.605,504.518 765.5,494C 765.261,491.741 766.261,490.574 768.5,490.5C 769.647,490.818 770.481,491.484 771,492.5C 775.071,505.97 780.238,518.97 786.5,531.5C 786.833,531.167 787.167,530.833 787.5,530.5C 785.862,505.882 785.028,481.215 785,456.5C 785.333,454.5 785.667,452.5 786,450.5C 787.049,449.483 788.216,449.316 789.5,450C 791.219,453.957 791.886,458.124 791.5,462.5C 793.635,462.147 794.968,462.98 795.5,465C 794.873,467.135 794.373,469.302 794,471.5C 793.4,487.841 793.066,504.174 793,520.5C 796.419,515.077 800.585,510.244 805.5,506C 800.851,497.054 797.185,487.721 794.5,478C 794.969,474.178 796.469,473.678 799,476.5C 800.163,481.828 802.163,486.828 805,491.5C 810.667,501.5 816.333,511.5 822,521.5C 824.951,523.076 828.117,523.743 831.5,523.5C 831.334,517.158 831.5,510.825 832,504.5C 832.996,496.993 834.996,496.66 838,503.5C 838.864,510.845 839.698,518.178 840.5,525.5C 846.854,526.596 852.687,528.929 858,532.5C 858.906,528.721 859.406,524.888 859.5,521C 858.592,508.866 858.259,496.866 858.5,485C 861.652,481.714 863.986,482.381 865.5,487C 865.089,488.144 864.756,489.311 864.5,490.5C 866.086,505.458 867.253,520.458 868,535.5C 873.413,525.006 879.079,514.673 885,504.5C 886.158,504.998 886.991,505.831 887.5,507C 882.24,518.354 876.573,529.52 870.5,540.5C 871,540.833 871.5,541.167 872,541.5C 881.56,536.803 891.393,532.803 901.5,529.5C 903.283,530.348 903.783,531.681 903,533.5C 898.867,538.634 894.367,543.468 889.5,548C 898.467,548.514 907.3,549.681 916,551.5C 915.086,546.002 913.919,540.502 912.5,535C 913.09,533.701 914.09,532.868 915.5,532.5C 917.918,533.415 919.918,534.915 921.5,537C 922.71,542.514 924.376,547.847 926.5,553C 934.042,554.458 941.375,556.625 948.5,559.5C 950.111,547.512 950.611,535.512 950,523.5C 949.734,520.099 951.234,518.433 954.5,518.5C 954.333,529.505 954.5,540.505 955,551.5C 957.209,554.789 958.042,558.456 957.5,562.5C 953.4,561.74 952.4,563.073 954.5,566.5C 953.351,569.436 952.851,572.436 953,575.5C 960.061,556.868 969.561,539.701 981.5,524C 985.115,522.073 986.615,523.24 986,527.5C 979.938,542.035 972.438,555.701 963.5,568.5C 963.667,568.833 963.833,569.167 964,569.5C 972.436,560.892 981.602,553.226 991.5,546.5C 993.941,548.528 994.108,550.862 992,553.5C 982.854,563.8 974.188,574.467 966,585.5C 965.018,586.759 964.685,588.092 965,589.5C 967.247,587.845 969.58,587.512 972,588.5C 986.751,567.424 1002.58,547.257 1019.5,528C 1020.17,527.333 1020.83,527.333 1021.5,528C 1022.55,529.388 1022.72,530.888 1022,532.5C 1008.3,558.078 993.466,582.911 977.5,607C 980.739,614.933 984.906,622.433 990,629.5C 990.268,620.135 990.935,610.802 992,601.5C 993.897,599.984 996.064,599.317 998.5,599.5C 996.477,612.438 995.311,625.438 995,638.5C 998.966,643.467 1003.3,648.134 1008,652.5C 1012.53,641.424 1016.36,630.091 1019.5,618.5C 1021.95,618.01 1023.62,618.843 1024.5,621C 1023.42,624.812 1022.42,628.645 1021.5,632.5C 1021.56,633.737 1022.06,634.737 1023,635.5C 1026.13,630.074 1029.63,624.907 1033.5,620C 1035.47,619.462 1036.47,620.296 1036.5,622.5C 1030.64,633.801 1025.14,645.134 1020,656.5C 1023.22,651.104 1027.72,647.438 1033.5,645.5C 1033.4,649.448 1031.73,652.615 1028.5,655C 1032.02,654.232 1035.02,652.399 1037.5,649.5C 1036.9,619.534 1039.73,589.867 1046,560.5C 1046.61,557.968 1048.11,557.135 1050.5,558C 1050.41,586.894 1048.41,615.728 1044.5,644.5C 1044.83,644.833 1045.17,645.167 1045.5,645.5C 1047.61,644.363 1049.77,643.363 1052,642.5C 1053.28,642.613 1054.11,643.28 1054.5,644.5C 1053.69,646.472 1052.36,647.972 1050.5,649C 1042.66,653.751 1035,658.751 1027.5,664C 1030.03,665.934 1032.7,667.268 1035.5,668C 1055.54,650.292 1075.87,632.959 1096.5,616C 1103.47,610.032 1110.14,603.699 1116.5,597C 1120.38,595.749 1121.71,596.915 1120.5,600.5C 1096.01,626.818 1070.68,652.318 1044.5,677C 1051.71,683.543 1058.21,690.71 1064,698.5C 1072.25,709.993 1080.25,721.66 1088,733.5C 1091.94,721.058 1095.28,708.391 1098,695.5C 1099.84,693.1 1101.34,693.433 1102.5,696.5C 1099.22,711.129 1095.55,725.629 1091.5,740C 1093.13,742.754 1094.63,745.588 1096,748.5C 1103.14,729.981 1110.3,711.981 1117.5,694.5C 1120.86,695.144 1122.03,697.144 1121,700.5C 1114.73,719.996 1107.73,738.996 1100,757.5C 1124.64,743.595 1150.47,732.595 1177.5,724.5C 1177.77,726.451 1177.11,727.951 1175.5,729C 1155.71,736.226 1136.38,744.56 1117.5,754C 1114.2,755.467 1112.2,757.967 1111.5,761.5C 1108.92,762.706 1106.42,764.039 1104,765.5C 1104.02,767.107 1104.19,768.774 1104.5,770.5C 1111.79,768.844 1119.12,767.51 1126.5,766.5C 1126.67,767.822 1126.34,768.989 1125.5,770C 1121.91,771.53 1118.24,772.864 1114.5,774C 1117.21,777.35 1116.21,779.017 1111.5,779C 1110.13,780.34 1108.8,781.674 1107.5,783C 1108.2,786.128 1108.7,789.294 1109,792.5C 1109.58,806.866 1109.58,821.199 1109,835.5C 1110.79,834.657 1112.62,834.49 1114.5,835C 1116.35,832.982 1118.35,831.149 1120.5,829.5C 1121.83,830.167 1122.83,831.167 1123.5,832.5C 1118.49,840.519 1112.99,848.186 1107,855.5C 1104.1,861.582 1105.26,862.749 1110.5,859C 1122.47,850.686 1135.14,843.686 1148.5,838C 1152.46,837.721 1156.29,836.887 1160,835.5C 1162.59,836.687 1163.09,838.52 1161.5,841C 1144.6,852.201 1126.94,862.201 1108.5,871C 1119.66,876.411 1130.66,882.078 1141.5,888C 1144.73,889.724 1145.06,891.724 1142.5,894C 1134.17,890.428 1125.67,886.928 1117,883.5C 1116.5,883.667 1116,883.833 1115.5,884C 1119.39,886.387 1122.39,889.553 1124.5,893.5C 1124.13,894.91 1123.3,895.91 1122,896.5C 1115.77,893.132 1109.27,890.466 1102.5,888.5C 1100.96,901.31 1097.8,913.976 1093,926.5C 1084.2,945.765 1075.2,964.765 1066,983.5C 1074.17,976 1082.33,968.5 1090.5,961C 1092.46,960.069 1094.46,959.236 1096.5,958.5C 1099.96,960.11 1100.46,962.443 1098,965.5C 1094.13,970.052 1089.29,972.885 1083.5,974C 1078.83,979.333 1074.17,984.667 1069.5,990C 1073,988.898 1076.67,988.065 1080.5,987.5C 1080.76,988.978 1080.43,990.311 1079.5,991.5C 1075.49,992.23 1073.33,994.563 1073,998.5C 1070.91,999.794 1068.75,1000.96 1066.5,1002C 1071.92,1001.11 1077.42,1000.28 1083,999.5C 1086.41,999.422 1089.57,1000.09 1092.5,1001.5C 1092.77,1003.45 1092.11,1004.95 1090.5,1006C 1095.17,1006.33 1099.83,1006.67 1104.5,1007C 1106.39,1008.08 1106.73,1009.41 1105.5,1011C 1088.81,1011.23 1072.14,1011.73 1055.5,1012.5C 1055.91,1034.53 1055.41,1056.53 1054,1078.5C 1052.64,1079.38 1051.14,1079.71 1049.5,1079.5C 1049.67,1074.49 1049.5,1069.49 1049,1064.5C 1046.18,1059.42 1045.02,1053.92 1045.5,1048C 1046.22,1037.43 1047.05,1026.93 1048,1016.5C 1034.2,1042.43 1021.2,1068.77 1009,1095.5C 1007.89,1097.04 1006.39,1097.7 1004.5,1097.5C 1006.96,1088.89 1010.3,1080.56 1014.5,1072.5C 1014.15,1071.3 1013.65,1071.3 1013,1072.5C 1000.67,1091.5 988.333,1110.5 976,1129.5C 973.036,1133.47 969.703,1137.13 966,1140.5C 955.481,1138.73 945.148,1136.06 935,1132.5C 929.843,1141.48 924.176,1150.14 918,1158.5C 918.207,1160.75 918.373,1163.08 918.5,1165.5C 916.61,1165.7 915.11,1165.04 914,1163.5C 911.79,1166.29 908.956,1167.12 905.5,1166C 895.852,1162.12 886.018,1158.62 876,1155.5C 869.869,1161.3 864.036,1167.47 858.5,1174C 852.833,1178.33 847.167,1182.67 841.5,1187C 835.138,1187.85 828.804,1188.85 822.5,1190C 817.794,1193.62 812.461,1195.12 806.5,1194.5C 792.463,1192.33 778.463,1189.83 764.5,1187C 755.896,1184.7 748.229,1180.86 741.5,1175.5C 739.776,1176.66 738.11,1176.49 736.5,1175C 737.517,1173.95 737.684,1172.78 737,1171.5C 735,1170.17 733,1168.83 731,1167.5C 729.287,1169.51 727.621,1171.51 726,1173.5C 725.506,1171.87 725.34,1170.2 725.5,1168.5C 703.025,1175.6 680.859,1183.6 659,1192.5C 656.815,1193.76 654.648,1193.76 652.5,1192.5C 646.842,1194.66 641.176,1196.66 635.5,1198.5C 627.668,1192.17 619.668,1186.01 611.5,1180C 599.568,1167.06 586.734,1155.23 573,1144.5C 572.503,1147.15 572.336,1149.81 572.5,1152.5C 570.856,1152.71 569.356,1152.38 568,1151.5C 565.592,1142.64 563.925,1133.64 563,1124.5C 559.794,1122.9 556.461,1121.57 553,1120.5C 546.023,1129.83 539.357,1139.5 533,1149.5C 531.386,1151.95 529.886,1151.78 528.5,1149C 534.62,1138.71 540.953,1128.54 547.5,1118.5C 535.862,1114.79 524.196,1110.95 512.5,1107C 507.746,1105.97 506.079,1103.3 507.5,1099C 506.584,1098.63 505.75,1098.13 505,1097.5C 502.327,1098.33 499.993,1099.67 498,1101.5C 495.35,1100.43 493.85,1098.43 493.5,1095.5C 491.784,1095 490.117,1094.67 488.5,1094.5C 484.441,1085.49 481.274,1076.16 479,1066.5C 474.814,1049.76 470.648,1033.09 466.5,1016.5C 465.033,1016.72 463.533,1017.06 462,1017.5C 456.626,1027.08 451.126,1036.58 445.5,1046C 448.958,1052.42 452.791,1058.59 457,1064.5C 459.308,1067.26 461.975,1069.59 465,1071.5C 465.14,1073.26 464.64,1074.92 463.5,1076.5C 466.608,1081.11 470.275,1085.28 474.5,1089C 477.569,1090.85 480.902,1091.85 484.5,1092C 485.451,1092.72 485.617,1093.55 485,1094.5C 479.21,1096.38 474.043,1095.21 469.5,1091C 459.169,1079 450.003,1066.17 442,1052.5C 431.911,1072.35 422.077,1092.35 412.5,1112.5C 411.167,1113.17 409.833,1113.83 408.5,1114.5C 406.961,1117.75 405.294,1120.91 403.5,1124C 402.207,1124.49 400.873,1124.66 399.5,1124.5C 409.205,1102.56 418.038,1080.23 426,1057.5C 428.433,1051.47 431.266,1045.63 434.5,1040C 430.034,1031.37 425.367,1022.87 420.5,1014.5C 403.116,1019.18 385.449,1022.34 367.5,1024C 355.386,1026.32 343.386,1028.82 331.5,1031.5C 330.28,1031.11 329.613,1030.28 329.5,1029C 331.646,1025.88 334.646,1023.88 338.5,1023C 356.944,1017.74 375.277,1012.07 393.5,1006C 400.111,1004.18 406.778,1002.68 413.5,1001.5C 412.107,995.037 408.94,989.704 404,985.5C 401.523,974.254 397.523,963.587 392,953.5C 387.217,965.311 384.05,977.311 382.5,989.5C 380.712,991.791 378.712,993.957 376.5,996C 375.004,996.507 373.837,996.007 373,994.5C 375.914,976.178 380.414,958.178 386.5,940.5C 386.281,939.062 385.781,937.729 385,936.5C 378.833,942.667 372.667,948.833 366.5,955C 365.207,955.49 363.873,955.657 362.5,955.5C 362.506,952.482 363.506,949.816 365.5,947.5C 365.167,947.167 364.833,946.833 364.5,946.5C 362.827,948.086 360.827,948.753 358.5,948.5C 358.343,947.127 358.51,945.793 359,944.5C 361.589,942.789 364.089,940.955 366.5,939C 365.833,938.833 365.167,938.667 364.5,938.5C 348.527,942.715 332.527,946.715 316.5,950.5C 316.703,948.61 316.037,947.11 314.5,946C 315.167,944.667 316.167,943.667 317.5,943C 338.938,937.807 360.271,932.307 381.5,926.5C 372.151,920.824 362.484,915.658 352.5,911C 348.461,908.721 348.628,906.888 353,905.5C 365.245,910.285 377.245,915.952 389,922.5C 387.716,911.513 386.049,900.513 384,889.5C 377.623,891.177 371.289,892.844 365,894.5C 359.534,895.042 358.367,893.209 361.5,889C 368.697,886.794 376.03,885.294 383.5,884.5C 383.922,880.278 383.255,876.278 381.5,872.5C 359.927,887.46 339.26,903.626 319.5,921C 315.341,920.292 311.341,920.626 307.5,922C 307.028,919.601 308.028,917.601 310.5,916C 316.655,911.089 322.989,906.423 329.5,902C 345.532,886.3 361.865,870.967 378.5,856C 368.049,856.517 357.715,858.017 347.5,860.5C 345.238,859.655 344.571,858.322 345.5,856.5C 349.16,854.027 353.16,852.194 357.5,851C 335.157,851.667 312.823,852.834 290.5,854.5C 286.578,854.166 282.578,853.999 278.5,854C 274.37,851.583 274.703,849.75 279.5,848.5C 284.111,849.61 288.778,849.777 293.5,849C 322.418,845.038 351.084,840.205 379.5,834.5C 372.089,818.288 364.089,802.454 355.5,787C 355.645,786.228 355.978,785.561 356.5,785C 358.5,784.333 360.5,784.333 362.5,785C 367.617,792.452 373.117,799.618 379,806.5C 380.35,796.728 382.35,787.061 385,777.5C 388,772.167 391,772.167 394,777.5C 398.52,765.802 403.02,754.135 407.5,742.5C 383.21,744.89 359.044,748.224 335,752.5C 331.251,751.923 330.751,750.423 333.5,748C 360.826,740.835 388.159,733.668 415.5,726.5C 388.383,706.557 361.383,686.391 334.5,666C 332.443,664.281 330.776,662.281 329.5,660C 330.007,657.659 331.174,657.159 333,658.5C 333.483,657.552 333.649,656.552 333.5,655.5C 357.069,668.623 380.736,681.79 404.5,695C 410.856,698.349 417.19,701.349 423.5,704C 416.382,686.69 411.216,668.857 408,650.5C 409.049,649.483 410.216,649.316 411.5,650C 419.303,663.104 426.47,676.604 433,690.5C 433.36,688.392 434.027,686.392 435,684.5C 443.995,674.505 451.828,663.672 458.5,652C 445.379,633.539 433.046,614.539 421.5,595C 422.337,593.989 422.67,592.822 422.5,591.5C 425.382,591.608 427.715,592.774 429.5,595C 441.398,606.229 452.565,618.063 463,630.5C 462.314,626.459 460.814,622.625 458.5,619C 459.354,617.978 460.354,617.145 461.5,616.5C 466.613,620.11 471.28,624.277 475.5,629C 476.167,629.667 476.833,629.667 477.5,629C 485.348,621.319 493.015,613.486 500.5,605.5C 496.326,597.32 492.326,589.154 488.5,581C 488.969,577.178 490.469,576.678 493,579.5C 496.306,587.446 500.139,595.112 504.5,602.5C 510.314,597.854 515.98,593.021 521.5,588C 513.667,574.833 505.833,561.667 498,548.5C 495.385,544.217 492.385,540.217 489,536.5C 488.602,531.355 490.769,530.188 495.5,533C 507.987,546.787 520.82,560.287 534,573.5C 539.888,563.767 541.055,553.434 537.5,542.5C 526.482,536.834 515.816,531.001 505.5,525C 506.628,522.935 508.294,522.268 510.5,523C 519.042,527.702 527.709,532.202 536.5,536.5C 536.895,529.898 536.395,523.231 535,516.5C 526.613,506.779 517.613,497.779 508,489.5C 507.32,487.024 508.153,485.191 510.5,484C 511.833,483.333 513.167,483.333 514.5,484C 520.686,489.687 527.019,495.187 533.5,500.5C 533.408,486.264 533.575,471.931 534,457.5C 534.561,456.978 535.228,456.645 536,456.5C 538.319,458.491 539.819,460.991 540.5,464C 542.683,479.095 544.183,494.262 545,509.5C 553.908,516.038 563.074,522.205 572.5,528C 575.789,529.959 576.123,532.125 573.5,534.5C 564.697,528.863 556.03,523.029 547.5,517C 546.668,516.312 546.002,516.479 545.5,517.5C 552.218,524.876 559.885,531.209 568.5,536.5C 569.83,538.347 569.497,539.847 567.5,541C 569.833,542.167 572.167,543.333 574.5,544.5C 575.429,545.689 575.762,547.022 575.5,548.5C 567.473,545.547 559.307,542.88 551,540.5C 550.5,540.667 550,540.833 549.5,541C 550.406,542.699 550.739,544.533 550.5,546.5C 555.223,548.359 559.89,550.526 564.5,553C 565.191,554.067 565.691,555.234 566,556.5C 575.586,550.289 585.419,544.456 595.5,539C 593.101,538.289 590.768,538.456 588.5,539.5C 587.119,539 586.453,538 586.5,536.5C 589.669,525.818 592.502,515.151 595,504.5C 589.658,513.182 584.825,522.182 580.5,531.5C 579.311,532.429 577.978,532.762 576.5,532.5C 582.558,515.048 591.225,499.048 602.5,484.5C 603.689,483.571 605.022,483.238 606.5,483.5C 603.451,493.817 600.284,504.151 597,514.5C 595.013,521.103 593.679,527.769 593,534.5C 598.885,532.725 604.551,530.392 610,527.5C 611.5,531.333 613.333,531.5 615.5,528C 625.53,524.817 635.197,520.817 644.5,516C 635.702,507.38 627.368,498.38 619.5,489C 621.01,486.245 623.343,485.079 626.5,485.5C 626.297,487.39 626.963,488.89 628.5,490C 639.677,496.516 650.843,503.016 662,509.5C 664.433,508.521 666.933,507.855 669.5,507.5C 667.404,484.812 666.738,462.145 667.5,439.5 Z M 671.5,467.5 C 675.102,479.24 678.102,491.24 680.5,503.5C 678.173,503.665 676.007,504.331 674,505.5C 672.172,492.899 671.339,480.232 671.5,467.5 Z M 723.5,493.5 C 724.675,493.281 725.675,493.614 726.5,494.5C 723.812,497.354 721.312,500.354 719,503.5C 717.921,500.937 717.421,498.271 717.5,495.5C 719.786,495.405 721.786,494.738 723.5,493.5 Z M 706.5,498.5 C 707.5,498.5 708.5,498.5 709.5,498.5C 709.666,502.514 709.499,506.514 709,510.5C 706.372,512.126 704.039,514.126 702,516.5C 701.171,511.136 701.337,505.802 702.5,500.5C 704.026,500.006 705.359,499.339 706.5,498.5 Z M 635.5,499.5 C 642.596,503.413 649.596,507.58 656.5,512C 654.156,513.028 651.823,513.694 649.5,514C 644.63,509.298 639.963,504.465 635.5,499.5 Z M 691.5,503.5 C 691.913,507.178 691.079,510.844 689,514.5C 688.166,511.828 687.332,509.161 686.5,506.5C 688.145,505.304 689.811,504.304 691.5,503.5 Z M 696.5,506.5 C 697.817,512.678 697.817,519.012 696.5,525.5C 694.5,527.167 692.5,528.833 690.5,530.5C 684.598,528.886 678.598,527.72 672.5,527C 676.877,522.302 677.544,516.969 674.5,511C 676.647,508.78 679.314,507.613 682.5,507.5C 683.486,512.96 684.986,518.293 687,523.5C 688.396,525.527 690.062,525.86 692,524.5C 692.791,518.299 694.291,512.299 696.5,506.5 Z M 668.5,511.5 C 670.344,512.204 670.844,513.537 670,515.5C 666.661,514.487 666.161,513.153 668.5,511.5 Z M 726.5,511.5 C 746.159,512.978 762.326,521.311 775,536.5C 776.366,538.37 777.533,540.37 778.5,542.5C 776.546,546.526 777.546,549.193 781.5,550.5C 784.536,567.723 786.036,585.056 786,602.5C 785.735,600.349 784.735,598.682 783,597.5C 781.5,597.667 780.667,598.5 780.5,600C 782.131,605.894 783.965,611.728 786,617.5C 786.667,621.167 786.667,624.833 786,628.5C 783.961,626.743 782.461,624.576 781.5,622C 779.285,620.956 776.952,620.29 774.5,620C 772.772,618.274 770.772,616.941 768.5,616C 765.833,612.667 763.167,609.333 760.5,606C 758.793,605.805 757.126,605.805 755.5,606C 741.9,593.603 730.067,579.769 720,564.5C 718.921,561.937 718.421,559.271 718.5,556.5C 716.856,556.714 715.356,556.38 714,555.5C 711.012,551.192 708.845,546.525 707.5,541.5C 709.167,541.5 710.833,541.5 712.5,541.5C 712.34,539.801 712.506,538.134 713,536.5C 717.512,528.14 722.012,519.806 726.5,511.5 Z M 807.5,513.5 C 810.207,516.247 811.873,519.58 812.5,523.5C 808.416,523.956 804.416,524.456 800.5,525C 803.484,521.527 805.817,517.694 807.5,513.5 Z M 540.5,514.5 C 543.228,531.308 546.561,548.141 550.5,565C 549.899,566.605 548.899,567.938 547.5,569C 544.444,570.856 541.444,572.689 538.5,574.5C 544.684,565.345 546.018,555.512 542.5,545C 543.357,544.311 544.023,543.478 544.5,542.5C 542.658,539.645 541.658,536.478 541.5,533C 540.657,526.862 540.324,520.695 540.5,514.5 Z M 660.5,514.5 C 664.012,517.17 667.678,519.67 671.5,522C 667.579,522.203 663.745,522.703 660,523.5C 658.167,521.667 656.333,519.833 654.5,518C 656.618,516.918 658.618,515.751 660.5,514.5 Z M 714.5,517.5 C 716.273,518.314 716.773,519.648 716,521.5C 713.064,526.373 710.397,531.373 708,536.5C 705.304,535.415 703.137,533.749 701.5,531.5C 701.899,529.803 702.399,528.137 703,526.5C 704.73,526.491 706.563,526.158 708.5,525.5C 710.509,522.804 712.509,520.137 714.5,517.5 Z M 647.5,519.5 C 649.886,520.373 651.886,521.873 653.5,524C 648.5,524.667 643.5,524.667 638.5,524C 641.823,522.96 644.823,521.46 647.5,519.5 Z M 775.5,520.5 C 777.93,525.196 780.264,530.03 782.5,535C 782,535.5 781.5,536 781,536.5C 777.682,531.714 775.849,526.381 775.5,520.5 Z M 562.5,538.5 C 558.134,537.659 553.801,536.659 549.5,535.5C 547.843,532.911 547.509,530.244 548.5,527.5C 553.236,531.186 557.903,534.853 562.5,538.5 Z M 811.5,527.5 C 812.833,527.5 814.167,527.5 815.5,527.5C 816.818,533.142 818.985,538.475 822,543.5C 827.406,548.451 832.906,553.284 838.5,558C 842.537,557.841 843.371,556.008 841,552.5C 840.333,544.833 840.333,537.167 841,529.5C 846.821,531.494 852.321,534.161 857.5,537.5C 859.799,541.694 860.466,546.027 859.5,550.5C 853.585,550.807 848.251,552.641 843.5,556C 844.155,557.487 845.155,558.653 846.5,559.5C 852.972,555.797 859.972,553.797 867.5,553.5C 867.887,558.08 867.053,562.414 865,566.5C 859.935,568.567 856.601,572.233 855,577.5C 840.5,592.667 826,607.833 811.5,623C 810.4,623.432 809.733,622.932 809.5,621.5C 812.391,614.717 815.558,608.051 819,601.5C 819.49,600.207 819.657,598.873 819.5,597.5C 818.022,597.238 816.689,597.571 815.5,598.5C 814.77,601.109 814.27,603.776 814,606.5C 810.274,611.228 806.941,616.228 804,621.5C 802.667,622.833 801.333,622.833 800,621.5C 801.025,617.595 802.525,613.761 804.5,610C 803.551,609.383 802.718,609.549 802,610.5C 801.138,612.087 800.471,613.754 800,615.5C 799.598,614.128 799.098,612.795 798.5,611.5C 797.349,610.269 796.183,610.269 795,611.5C 794.087,605.33 792.753,599.33 791,593.5C 790.18,578.826 788.347,564.326 785.5,550C 788.096,548.864 790.763,548.031 793.5,547.5C 793.5,546.167 793.5,544.833 793.5,543.5C 790.61,543.278 787.943,543.945 785.5,545.5C 783.667,544.032 783.334,542.365 784.5,540.5C 785.842,542.005 787.508,542.672 789.5,542.5C 788.864,539.894 788.864,537.394 789.5,535C 796.412,530.974 803.745,528.474 811.5,527.5 Z M 825.5,528.5 C 827.265,527.539 829.265,527.205 831.5,527.5C 831.702,529.989 831.202,532.323 830,534.5C 828.637,532.316 827.137,530.316 825.5,528.5 Z M 702.5,573.5 C 702.456,569.446 700.456,566.779 696.5,565.5C 698.048,560.021 699.881,554.688 702,549.5C 706.396,558.626 711.063,567.626 716,576.5C 718.755,581.089 722.588,584.422 727.5,586.5C 730.145,590.279 733.145,593.779 736.5,597C 733.048,598.226 729.715,599.726 726.5,601.5C 725.11,603.495 725.61,604.828 728,605.5C 731.852,604.217 735.519,602.55 739,600.5C 740.758,601.469 741.258,602.636 740.5,604C 731.088,611.246 720.421,614.246 708.5,613C 701.877,614.875 695.21,616.542 688.5,618C 647.188,637.567 609.688,662.733 576,693.5C 572.3,690.366 568.133,689.366 563.5,690.5C 560.023,672.319 559.523,653.986 562,635.5C 563.489,651.236 565.489,666.902 568,682.5C 569.584,683.861 571.418,684.528 573.5,684.5C 572.067,669.836 570.567,655.169 569,640.5C 567.502,635.177 566.002,629.844 564.5,624.5C 561.871,622.95 560.037,623.616 559,626.5C 557.188,639.445 555.855,652.445 555,665.5C 550.402,653.205 545.902,640.872 541.5,628.5C 539.391,625.898 537.724,626.231 536.5,629.5C 536.059,631.145 535.726,632.811 535.5,634.5C 537.629,648.575 539.796,662.575 542,676.5C 532.97,667.136 523.637,658.136 514,649.5C 513.333,650.167 512.667,650.833 512,651.5C 509.167,648 506.333,644.5 503.5,641C 501.82,640.966 500.32,640.799 499,640.5C 497.842,640.998 497.009,641.831 496.5,643C 498.471,647.108 500.304,651.275 502,655.5C 503.333,656.167 504.667,656.833 506,657.5C 515.959,673.249 525.792,689.083 535.5,705C 518.582,704.755 501.748,703.255 485,700.5C 481.408,702.259 481.074,704.259 484,706.5C 485.144,706.089 486.311,705.756 487.5,705.5C 503.625,708.11 519.625,710.944 535.5,714C 533.5,714.333 531.5,714.667 529.5,715C 515.456,721.941 501.29,728.441 487,734.5C 486.116,736.641 486.616,738.307 488.5,739.5C 505.194,735.438 521.694,730.438 538,724.5C 539.622,724.954 540.788,725.954 541.5,727.5C 518.782,752.075 500.616,779.742 487,810.5C 480.197,829.244 473.197,847.911 466,866.5C 462.276,867.815 458.442,868.315 454.5,868C 455.406,866.301 455.739,864.467 455.5,862.5C 450.871,865.139 445.871,867.306 440.5,869C 426.844,872.942 413.177,876.775 399.5,880.5C 396.893,844.628 400.059,809.295 409,774.5C 415.685,754.275 422.852,734.275 430.5,714.5C 434.319,714.528 435.319,712.862 433.5,709.5C 433.482,707.627 433.982,707.294 435,708.5C 436.108,715.115 436.775,721.782 437,728.5C 438,729.833 439,729.833 440,728.5C 441.12,718.982 440.286,709.649 437.5,700.5C 439.83,695.172 442.164,689.838 444.5,684.5C 455.497,675.028 464.33,664.028 471,651.5C 487.862,634.304 505.028,617.471 522.5,601C 529.581,597.957 536.248,594.124 542.5,589.5C 543.869,591.124 545.536,591.624 547.5,591C 547.745,588.911 547.745,586.911 547.5,585C 555.222,578.945 563.222,573.278 571.5,568C 595.628,555.604 619.628,543.271 643.5,531C 661.068,529.554 678.401,531.221 695.5,536C 697.099,537.066 698.099,538.566 698.5,540.5C 695.382,547.682 692.549,555.015 690,562.5C 680.167,556.667 672.333,548.833 666.5,539C 668,535.167 666.833,534 663,535.5C 662.101,533.673 660.767,532.34 659,531.5C 657.5,531.667 656.667,532.5 656.5,534C 660.383,540.713 663.217,547.547 665,554.5C 671.445,565.879 676.612,577.712 680.5,590C 678.398,597.244 676.064,604.411 673.5,611.5C 675.092,614.533 677.426,615.199 680.5,613.5C 683.289,607.352 685.622,601.018 687.5,594.5C 691.63,593.518 695.463,591.852 699,589.5C 703.188,594.335 708.022,598.335 713.5,601.5C 714.902,601.135 715.902,600.301 716.5,599C 715.683,597.51 714.85,596.01 714,594.5C 709.737,592.072 705.903,589.072 702.5,585.5C 704.995,581.853 706.329,577.853 706.5,573.5C 705.167,573.5 703.833,573.5 702.5,573.5 Z M 820.5,529.5 C 822.558,531.927 824.391,534.593 826,537.5C 827.333,538.833 828.667,538.833 830,537.5C 830.549,541.617 832.216,542.284 835,539.5C 835.333,536.167 835.667,532.833 836,529.5C 836.831,536.192 836.664,542.858 835.5,549.5C 828.174,544.516 823.174,537.85 820.5,529.5 Z M 620.5,532.5 C 622.199,532.34 623.866,532.506 625.5,533C 622.048,534.226 618.715,535.726 615.5,537.5C 614.167,536.5 614.167,535.5 615.5,534.5C 617.336,533.972 619.003,533.306 620.5,532.5 Z M 605.5,541.5 C 594.411,547.402 583.411,553.569 572.5,560C 569.833,561.991 567.5,564.324 565.5,567C 562.479,567.673 559.479,568.007 556.5,568C 571.337,558.078 586.67,548.912 602.5,540.5C 603.417,541.127 604.417,541.461 605.5,541.5 Z M 884.5,545.5 C 882.947,548.254 880.614,549.087 877.5,548C 879.65,546.589 881.984,545.755 884.5,545.5 Z M 506.5,552.5 C 514.77,561.272 523.27,569.938 532,578.5C 530.504,581.331 528.171,583.664 525,585.5C 518.61,574.614 512.443,563.614 506.5,552.5 Z M 552.5,552.5 C 556.379,554.271 560.379,555.771 564.5,557C 561.42,559.29 558.253,561.457 555,563.5C 553.69,559.93 552.857,556.263 552.5,552.5 Z M 872.5,552.5 C 879.815,552.156 879.981,553.822 873,557.5C 872.506,555.866 872.34,554.199 872.5,552.5 Z M 884.5,552.5 C 891.524,552.608 898.524,553.108 905.5,554C 897.807,554.52 890.14,554.854 882.5,555C 883.381,554.292 884.047,553.458 884.5,552.5 Z M 1005.5,552.5 C 995.983,569.527 985.816,586.194 975,602.5C 973.833,600.667 972.667,598.833 971.5,597C 982.313,581.697 993.647,566.864 1005.5,552.5 Z M 926.5,558.5 C 933.577,558.894 940.577,560.728 947.5,564C 948.598,566.498 948.432,568.998 947,571.5C 939.501,568.159 932.668,563.825 926.5,558.5 Z M 838.5,608.5 C 839.833,608.167 839.833,607.833 838.5,607.5C 841.5,603.833 844.833,600.5 848.5,597.5C 848.833,598.833 849.167,598.833 849.5,597.5C 852.931,594.408 855.931,590.908 858.5,587C 869.349,580.02 868.682,578.52 856.5,582.5C 863.489,575.734 870.156,568.568 876.5,561C 891.361,559.551 905.861,561.384 920,566.5C 922.933,577.299 926.267,587.966 930,598.5C 931.079,600.394 932.413,600.727 934,599.5C 934.118,589.954 932.618,580.621 929.5,571.5C 929.833,570.833 930.167,570.167 930.5,569.5C 935.759,572.591 940.592,576.257 945,580.5C 945.333,583.833 945.667,587.167 946,590.5C 948.601,594.438 951.101,594.438 953.5,590.5C 954.308,590.808 954.975,591.308 955.5,592C 948.197,595.317 940.864,598.65 933.5,602C 932.151,603.635 932.318,605.135 934,606.5C 942.22,602.319 950.72,599.152 959.5,597C 968.789,609.745 977.956,622.579 987,635.5C 988.656,638.753 988.823,642.087 987.5,645.5C 943.969,630.475 899.302,625.309 853.5,630C 866.681,621.573 880.348,613.907 894.5,607C 897.333,604.833 899.833,602.333 902,599.5C 902.774,597.597 902.44,595.93 901,594.5C 880.535,605.732 860.535,617.732 841,630.5C 838.595,629.726 836.095,629.226 833.5,629C 838.47,626.025 842.804,622.358 846.5,618C 844.833,617.333 843.167,617.333 841.5,618C 836.635,619.096 831.969,620.429 827.5,622C 832.1,618.236 835.766,613.736 838.5,608.5 Z M 702.5,573.5 C 701.726,576.514 700.393,579.181 698.5,581.5C 695.867,576.093 693.534,576.26 691.5,582C 695.792,586.93 694.459,589.097 687.5,588.5C 688.486,584.557 689.152,580.557 689.5,576.5C 688.178,576.67 687.011,576.337 686,575.5C 684.153,570.306 681.653,565.472 678.5,561C 681.729,562.376 684.896,564.209 688,566.5C 688.617,567.449 688.451,568.282 687.5,569C 688.858,571.026 689.691,573.193 690,575.5C 691.356,576.38 692.856,576.714 694.5,576.5C 694.181,574.25 694.681,572.25 696,570.5C 697.509,572.919 699.675,573.919 702.5,573.5 Z M 972.5,568.5 C 968.91,573.936 965.077,579.27 961,584.5C 960.167,583.667 959.333,582.833 958.5,582C 962.408,576.652 967.075,572.152 972.5,568.5 Z M 538.5,574.5 C 537.762,576.76 536.762,576.927 535.5,575C 536.448,574.517 537.448,574.351 538.5,574.5 Z M 643.5,574.5 C 648.587,590.016 651.42,606.016 652,622.5C 650.817,623.731 649.651,623.731 648.5,622.5C 646.988,606.721 645.321,590.721 643.5,574.5 Z M 681.5,579.5 C 683.273,580.314 683.773,581.648 683,583.5C 681.812,582.437 681.312,581.103 681.5,579.5 Z M 533.5,585.5 C 533.027,586.906 532.027,587.573 530.5,587.5C 530.973,586.094 531.973,585.427 533.5,585.5 Z M 528.5,589.5 C 527.738,591.262 526.404,592.262 524.5,592.5C 525.262,590.738 526.596,589.738 528.5,589.5 Z M 523.5,593.5 C 518.229,598.269 513.062,603.269 508,608.5C 507.5,608 507,607.5 506.5,607C 511.773,601.882 517.439,597.382 523.5,593.5 Z M 743.5,606.5 C 746.793,609.456 750.127,612.456 753.5,615.5C 752.833,615.833 752.167,616.167 751.5,616.5C 745.53,615.752 739.53,615.252 733.5,615C 733.167,614.667 732.833,614.333 732.5,614C 736.894,612.418 740.561,609.918 743.5,606.5 Z M 436.5,609.5 C 446.104,619.605 455.937,629.605 466,639.5C 465.69,642.689 464.19,645.355 461.5,647.5C 452.362,635.362 444.029,622.696 436.5,609.5 Z M 502.5,610.5 C 503.525,610.897 503.692,611.563 503,612.5C 495.667,619.833 488.333,627.167 481,634.5C 481.398,632.369 482.398,630.369 484,628.5C 490.062,622.27 496.229,616.27 502.5,610.5 Z M 735.5,621.5 C 743.885,621.756 752.218,622.59 760.5,624C 764.167,628.333 767.833,632.667 771.5,637C 750.09,650.074 730.756,665.741 713.5,684C 711.765,684.651 710.098,684.485 708.5,683.5C 707.808,684.025 707.308,684.692 707,685.5C 705.572,671.782 703.905,658.115 702,644.5C 701.282,643.549 700.449,643.383 699.5,644C 699.353,659.366 700.686,674.699 703.5,690C 698.989,694.845 694.155,699.345 689,703.5C 685.916,690.079 683.082,676.579 680.5,663C 679.352,659.14 677.686,658.807 675.5,662C 679.037,677.393 681.871,692.893 684,708.5C 679.515,713.649 675.848,719.316 673,725.5C 668.206,731.3 662.54,735.967 656,739.5C 656.958,737.213 656.124,735.547 653.5,734.5C 651.591,735.348 649.591,735.682 647.5,735.5C 648.263,739.138 646.93,740.638 643.5,740C 631.811,732.155 620.478,723.822 609.5,715C 607.359,714.116 605.693,714.616 604.5,716.5C 615.42,725.966 627.086,734.466 639.5,742C 640.743,743.154 641.743,744.488 642.5,746C 643.449,746.617 644.282,746.451 645,745.5C 645.833,747.167 646.667,748.833 647.5,750.5C 646.5,752.5 645.5,754.5 644.5,756.5C 644.624,757.107 644.957,757.44 645.5,757.5C 643.679,761.125 641.345,764.458 638.5,767.5C 632.789,770.878 628.456,775.545 625.5,781.5C 625.624,782.107 625.957,782.44 626.5,782.5C 621.27,792.054 615.27,801.054 608.5,809.5C 608.833,810.167 609.167,810.833 609.5,811.5C 598.605,834.676 588.771,858.343 580,882.5C 577.713,885.78 575.88,889.28 574.5,893C 574.833,894 575.167,895 575.5,896C 561.391,935.76 554.057,976.76 553.5,1019C 555.63,1046.16 557.463,1073.33 559,1100.5C 557.794,1104.65 555.127,1106.98 551,1107.5C 545.117,1106.96 539.284,1106.13 533.5,1105C 523.382,1100.77 513.382,1096.27 503.5,1091.5C 500.578,1085.24 497.744,1078.91 495,1072.5C 488.729,1046.92 482.229,1021.42 475.5,996C 485.209,980.748 495.042,965.581 505,950.5C 505.49,949.207 505.657,947.873 505.5,946.5C 501.562,946.635 498.228,948.135 495.5,951C 487.263,958.567 479.763,966.733 473,975.5C 471.488,952.521 471.155,929.521 472,906.5C 476.517,877.569 483.183,849.235 492,821.5C 494.167,817.167 496.333,812.833 498.5,808.5C 508.47,792.699 518.636,777.032 529,761.5C 531.365,757.634 534.532,754.634 538.5,752.5C 539.747,750.958 539.747,749.458 538.5,748C 542.454,743.258 546.287,738.424 550,733.5C 555.838,750.358 559.505,767.692 561,785.5C 561.928,787.335 563.094,787.668 564.5,786.5C 564.493,775.898 564.66,765.232 565,754.5C 565.333,757.167 565.667,759.833 566,762.5C 568.8,764.118 570.3,763.285 570.5,760C 568.131,745.537 567.131,731.037 567.5,716.5C 578.163,715.048 588.83,713.548 599.5,712C 603.019,711.605 606.352,710.605 609.5,709C 610.991,706.978 610.658,705.312 608.5,704C 600.768,703.176 593.101,702.176 585.5,701C 597.544,690.621 609.877,680.621 622.5,671C 640.662,658.751 658.996,646.751 677.5,635C 685.173,630.996 693.173,627.83 701.5,625.5C 702.5,626.167 703.5,626.833 704.5,627.5C 710.525,625.382 716.525,625.715 722.5,628.5C 724.488,627.711 724.821,626.545 723.5,625C 720.911,623.803 718.244,622.803 715.5,622C 721.942,621.149 728.275,621.649 734.5,623.5C 736.721,623.561 737.054,622.895 735.5,621.5 Z M 469.5,630.5 C 472.564,630.981 473.398,632.314 472,634.5C 470.519,633.529 469.685,632.196 469.5,630.5 Z M 828.5,631.5 C 829.773,632.077 829.773,632.743 828.5,633.5C 827.537,633.03 827.537,632.363 828.5,631.5 Z M 885.5,633.5 C 902.451,632.686 919.451,633.853 936.5,637C 953.745,640.25 970.745,644.417 987.5,649.5C 987.663,651.857 987.497,654.19 987,656.5C 979.572,653.585 972.572,649.918 966,645.5C 963.152,647.022 962.819,649.022 965,651.5C 974.133,655.228 981.8,660.895 988,668.5C 989.756,666.638 991.256,664.638 992.5,662.5C 993.167,659.167 993.833,655.833 994.5,652.5C 998.779,653.973 1002.78,655.973 1006.5,658.5C 1003.87,664.886 1001.54,671.386 999.5,678C 1001.21,685.579 1004.21,686.246 1008.5,680C 1011.17,678.667 1013.83,677.333 1016.5,676C 1019,674.216 1019,672.549 1016.5,671C 1018.83,669.5 1021.17,668 1023.5,666.5C 1027.76,668.585 1030.76,671.752 1032.5,676C 1033.78,676.684 1034.95,676.517 1036,675.5C 1037.23,676.275 1037.56,677.275 1037,678.5C 1033.33,682.167 1029.67,685.833 1026,689.5C 1024.4,691.369 1023.4,693.369 1023,695.5C 1024.05,696.517 1025.22,696.684 1026.5,696C 1031.53,691.301 1036.2,686.301 1040.5,681C 1041.17,680.333 1041.83,680.333 1042.5,681C 1059.93,699.419 1074.6,719.752 1086.5,742C 1085.84,744.462 1085.51,746.962 1085.5,749.5C 1087.26,749.643 1088.93,749.309 1090.5,748.5C 1091.58,749.665 1092.42,750.998 1093,752.5C 1093.05,755.865 1092.55,759.199 1091.5,762.5C 1092.48,764.777 1093.14,767.11 1093.5,769.5C 1095.67,769.08 1097.67,769.08 1099.5,769.5C 1100.45,772.292 1100.45,774.792 1099.5,777C 1081.72,783.205 1064.05,789.705 1046.5,796.5C 1044.86,795.295 1044.53,793.962 1045.5,792.5C 1044.11,790.38 1043.44,788.047 1043.5,785.5C 1046.31,774.921 1048.81,764.255 1051,753.5C 1051.5,748.177 1051.67,742.844 1051.5,737.5C 1049.09,737.137 1047.59,738.137 1047,740.5C 1044.2,749.895 1041.2,759.228 1038,768.5C 1023.34,731.175 1001.51,698.675 972.5,671C 947.617,649.232 918.617,636.732 885.5,633.5 Z M 856.5,635.5 C 872.413,635.491 888.08,637.324 903.5,641C 901.683,642.8 900.516,644.966 900,647.5C 897.489,657.211 894.822,666.877 892,676.5C 890.15,679.677 888.317,682.843 886.5,686C 886.82,687.653 887.82,688.653 889.5,689C 888.44,691.737 887.606,694.57 887,697.5C 877.692,673.863 862.859,654.53 842.5,639.5C 847.243,638.027 851.91,636.694 856.5,635.5 Z M 478.5,636.5 C 477.542,637.962 476.376,639.295 475,640.5C 474.832,638.159 475.999,636.826 478.5,636.5 Z M 818.5,642.5 C 819.918,640.292 821.918,639.458 824.5,640C 822.593,641.122 820.593,641.955 818.5,642.5 Z M 811.5,640.5 C 807.324,643.849 802.824,646.849 798,649.5C 797.505,647.527 797.338,645.527 797.5,643.5C 802.255,642.915 806.922,641.915 811.5,640.5 Z M 869.5,901.5 C 867.576,903.09 867.243,904.924 868.5,907C 867.167,909 865.833,911 864.5,913C 865.313,914.885 866.647,915.551 868.5,915C 880.454,900.258 892.287,885.425 904,870.5C 908.899,871.783 913.732,873.117 918.5,874.5C 921.836,905.182 925.169,935.849 928.5,966.5C 927.21,967.408 925.877,967.241 924.5,966C 926.786,955.739 922.953,948.906 913,945.5C 912.804,937.118 912.304,928.785 911.5,920.5C 908.609,919.322 905.609,918.655 902.5,918.5C 901.347,928.192 901.68,937.859 903.5,947.5C 899.813,948.176 896.48,949.676 893.5,952C 890.625,955.044 887.625,957.877 884.5,960.5C 869.761,964.915 854.761,968.082 839.5,970C 836.406,970.471 834.739,972.304 834.5,975.5C 830.216,976.978 829.549,979.311 832.5,982.5C 834.131,980.703 836.131,979.536 838.5,979C 852.84,977.055 867.173,975.222 881.5,973.5C 882.177,976.867 883.843,979.534 886.5,981.5C 885.022,981.238 883.689,981.571 882.5,982.5C 877.306,994.398 870.972,1005.56 863.5,1016C 864.313,1017.88 865.647,1018.55 867.5,1018C 871.893,1015.62 875.726,1012.45 879,1008.5C 883.667,1001.83 888.333,995.167 893,988.5C 898.843,991.332 903.843,995.332 908,1000.5C 912.23,1007.12 917.063,1013.29 922.5,1019C 924.808,1020.87 927.475,1021.87 930.5,1022C 926.981,1043.88 920.148,1064.72 910,1084.5C 905.185,1094.62 900.185,1104.62 895,1114.5C 890.772,1105.04 886.272,1095.71 881.5,1086.5C 892.569,1079.03 897.736,1068.69 897,1055.5C 894.389,1048.69 889.389,1045.35 882,1045.5C 878.572,1045.69 875.239,1046.36 872,1047.5C 866.708,1046.37 862.041,1047.71 858,1051.5C 850.541,1041.57 843.374,1031.57 836.5,1021.5C 834.636,1023.2 832.969,1025.03 831.5,1027C 835.679,1030.85 839.512,1035.01 843,1039.5C 845.833,1045.17 849.166,1050.5 853,1055.5C 853.66,1058.53 853.16,1061.37 851.5,1064C 843.499,1064.27 835.499,1064.1 827.5,1063.5C 827.5,1062.5 827.5,1061.5 827.5,1060.5C 823.121,1060.29 818.787,1060.63 814.5,1061.5C 812.116,1060.99 809.783,1060.32 807.5,1059.5C 804.381,1060.69 804.048,1062.19 806.5,1064C 820.982,1067.08 835.649,1068.92 850.5,1069.5C 850.75,1072.21 850.917,1074.88 851,1077.5C 840,1090.5 829,1103.5 818,1116.5C 817.333,1117.83 817.333,1119.17 818,1120.5C 818.718,1121.45 819.551,1121.62 820.5,1121C 827.795,1112.04 835.462,1103.37 843.5,1095C 848.565,1093.84 852.065,1090.67 854,1085.5C 858.267,1090.3 863.601,1092.63 870,1092.5C 876.632,1102.93 883.132,1113.43 889.5,1124C 885.414,1131.75 880.914,1139.25 876,1146.5C 873.955,1147.89 871.788,1149.05 869.5,1150C 870.554,1151.39 870.72,1152.89 870,1154.5C 864.866,1160.64 859.366,1166.47 853.5,1172C 850.576,1172.99 847.576,1173.65 844.5,1174C 841.222,1175.81 837.889,1177.31 834.5,1178.5C 834.5,1177.5 834.5,1176.5 834.5,1175.5C 822.788,1178.97 810.788,1180.97 798.5,1181.5C 784.658,1178.06 771.824,1172.39 760,1164.5C 759.167,1164.83 758.333,1165.17 757.5,1165.5C 763.759,1171.47 771.093,1175.63 779.5,1178C 770.858,1178.09 762.525,1176.42 754.5,1173C 748.918,1169.71 743.252,1166.71 737.5,1164C 742.314,1163.63 744.648,1161.13 744.5,1156.5C 741.881,1156.23 739.381,1156.56 737,1157.5C 736.833,1157 736.667,1156.5 736.5,1156C 738.819,1153.01 741.153,1150.01 743.5,1147C 742.101,1146.41 740.768,1146.57 739.5,1147.5C 739.167,1147 738.833,1146.5 738.5,1146C 739.5,1144.33 740.5,1142.67 741.5,1141C 741.095,1140.05 740.428,1139.39 739.5,1139C 740.941,1132.59 742.107,1126.09 743,1119.5C 745.314,1116.93 747.481,1114.27 749.5,1111.5C 749.333,1111.17 749.167,1110.83 749,1110.5C 747.29,1111.94 745.456,1112.78 743.5,1113C 744.865,1105.88 746.199,1098.71 747.5,1091.5C 747.392,1090.56 747.059,1089.72 746.5,1089C 752.372,1069.1 757.538,1049.27 762,1029.5C 764.483,1027.74 764.983,1025.57 763.5,1023C 767.067,1020.2 767.733,1017.03 765.5,1013.5C 768.375,1010.23 769.375,1006.56 768.5,1002.5C 776.653,972.207 784.153,941.207 791,909.5C 799.084,860.368 803.251,811.034 803.5,761.5C 804.572,751.652 805.572,741.818 806.5,732C 804.696,721.463 805.863,711.296 810,701.5C 812.544,699.998 814.71,698.164 816.5,696C 816.387,694.72 815.72,693.887 814.5,693.5C 812.587,694.373 810.753,695.373 809,696.5C 808.667,695.167 808.333,693.833 808,692.5C 803.715,691.193 802.549,692.693 804.5,697C 804.491,698.404 803.991,699.57 803,700.5C 801.38,694.688 801.213,688.855 802.5,683C 800.812,674.094 799.479,665.094 798.5,656C 804.463,650.551 811.129,646.051 818.5,642.5C 816.45,645.058 814.117,647.558 811.5,650C 811.998,651.158 812.831,651.991 814,652.5C 817.902,650.131 821.735,647.631 825.5,645C 828.449,643.239 831.616,642.072 835,641.5C 838.712,642.866 842.212,644.699 845.5,647C 863.309,662.431 876.309,681.265 884.5,703.5C 880.751,704.225 877.084,705.225 873.5,706.5C 862.847,700.683 853.18,693.516 844.5,685C 840.597,684.225 837.597,682.225 835.5,679C 833.393,678.146 832.059,678.812 831.5,681C 833.203,685.495 836.203,688.495 840.5,690C 853.717,703.053 867.384,715.553 881.5,727.5C 882.881,727 883.547,726 883.5,724.5C 881.393,721.218 879.06,718.051 876.5,715C 880.977,716.916 885.311,719.416 889.5,722.5C 893.766,733.873 895.932,745.539 896,757.5C 898.056,758.583 899.389,760.25 900,762.5C 904.934,781.837 909.101,801.337 912.5,821C 911.303,822.52 909.803,823.687 908,824.5C 903.338,823.161 898.838,821.327 894.5,819C 877.994,809.579 861.327,800.413 844.5,791.5C 843.548,790.467 843.548,789.3 844.5,788C 842.746,785.173 840.912,785.006 839,787.5C 837.636,786.742 836.469,787.242 835.5,789C 836.022,789.561 836.355,790.228 836.5,791C 832.31,796.81 833.143,797.643 839,793.5C 842.414,799.79 846.914,805.29 852.5,810C 859.545,814.523 866.878,818.523 874.5,822C 881.646,827.645 888.646,833.478 895.5,839.5C 894.791,844.879 893.791,850.212 892.5,855.5C 888.551,856.684 884.551,857.684 880.5,858.5C 880.291,859.086 879.957,859.586 879.5,860C 880.103,861.825 880.77,863.659 881.5,865.5C 882.167,865.833 882.833,866.167 883.5,866.5C 886.434,865.58 889.434,864.913 892.5,864.5C 894.319,864.342 895.652,865.009 896.5,866.5C 886.181,877.319 875.681,887.986 865,898.5C 864.486,902.332 865.986,903.332 869.5,901.5 Z M 981.5,793.5 C 980.078,793.25 979.078,792.417 978.5,791C 973.745,790.907 972.745,792.74 975.5,796.5C 982.785,799.095 990.118,801.595 997.5,804C 1002.22,808.712 1007.89,811.712 1014.5,813C 1013.34,816.428 1012.34,819.928 1011.5,823.5C 1007.19,826.643 1003.02,829.977 999,833.5C 998.28,835.112 998.446,836.612 999.5,838C 997,840.5 994.5,843 992,845.5C 991.911,849.71 993.744,850.543 997.5,848C 1001.03,844.131 1004.87,840.631 1009,837.5C 1009.62,836.551 1009.45,835.718 1008.5,835C 1012.21,831.112 1016.54,828.278 1021.5,826.5C 1025.29,827.031 1028.96,828.031 1032.5,829.5C 1036.53,828.401 1040.03,826.401 1043,823.5C 1043.67,831.833 1043.67,840.167 1043,848.5C 1041.54,866.543 1039.04,884.209 1035.5,901.5C 1031.14,901.414 1026.81,901.08 1022.5,900.5C 1022.3,902.39 1022.96,903.89 1024.5,905C 1027.83,905.61 1031.16,906.11 1034.5,906.5C 1033.97,911.959 1032.8,917.292 1031,922.5C 1019.11,945.159 1009.78,968.826 1003,993.5C 1001.99,992.663 1000.82,992.33 999.5,992.5C 996.163,982.319 993.329,971.985 991,961.5C 987.243,951.383 983.409,941.383 979.5,931.5C 981.833,933.111 983.5,932.611 984.5,930C 982.854,925.877 981.354,921.711 980,917.5C 977.099,914.688 974.432,911.688 972,908.5C 962.599,893.942 953.432,879.276 944.5,864.5C 946.925,859.801 948.258,854.801 948.5,849.5C 947.659,844.827 947.159,840.161 947,835.5C 952.587,827.999 957.421,819.999 961.5,811.5C 960.307,809.616 958.641,809.116 956.5,810C 950.333,815.5 944.167,821 938,826.5C 936.247,825.373 934.413,824.373 932.5,823.5C 931.417,822.635 931.251,821.635 932,820.5C 936.275,811.618 940.275,802.618 944,793.5C 945.546,783.352 942.879,782.019 936,789.5C 929.898,799.119 924.398,809.119 919.5,819.5C 918.758,820.287 917.925,820.953 917,821.5C 913.841,800.204 909.341,779.204 903.5,758.5C 904.48,757.019 905.647,755.685 907,754.5C 910.73,762.293 914.73,769.959 919,777.5C 920.724,780.73 922.724,781.064 925,778.5C 922.615,769.706 919.615,761.04 916,752.5C 914.978,751.646 914.145,750.646 913.5,749.5C 919.257,740.869 919.924,731.869 915.5,722.5C 919.658,719.174 923.325,715.341 926.5,711C 933.126,706.043 939.46,700.709 945.5,695C 950.356,692.84 955.023,690.506 959.5,688C 958.337,686.145 956.67,684.811 954.5,684C 953.167,683.333 951.833,683.333 950.5,684C 938.382,693.448 925.716,702.115 912.5,710C 910.322,710.165 908.489,709.332 907,707.5C 907.302,685.794 907.136,664.127 906.5,642.5C 907,642.167 907.5,641.833 908,641.5C 933.944,648.548 956.444,661.381 975.5,680C 1002.45,707.713 1022.45,739.88 1035.5,776.5C 1032,786.812 1026.33,795.646 1018.5,803C 1006.58,803.037 996.577,798.704 988.5,790C 986.557,788.445 984.39,787.278 982,786.5C 980.5,786.667 979.667,787.5 979.5,789C 980.044,790.585 980.711,792.085 981.5,793.5 Z M 468.5,647.5 C 468.511,645.314 469.511,644.481 471.5,645C 470.627,646.045 469.627,646.878 468.5,647.5 Z M 776.5,644.5 C 778.751,646.146 780.418,648.313 781.5,651C 777.667,652.318 773.667,653.151 769.5,653.5C 769.222,655.346 769.889,656.68 771.5,657.5C 775.836,655.348 780.17,655.681 784.5,658.5C 782.146,660.246 781.146,662.579 781.5,665.5C 783.262,665.643 784.929,665.309 786.5,664.5C 787.624,665.914 788.624,667.414 789.5,669C 787.744,669.202 786.078,669.702 784.5,670.5C 785.712,672.923 787.712,673.923 790.5,673.5C 791.565,683.152 792.565,692.819 793.5,702.5C 793.167,704.167 792.833,705.833 792.5,707.5C 775.65,720.76 758.983,734.26 742.5,748C 734.943,753.889 727.11,759.389 719,764.5C 716.545,745.438 713.545,726.438 710,707.5C 709.333,704.5 709.333,701.5 710,698.5C 715.053,692.441 720.553,686.608 726.5,681C 734.667,674.167 742.833,667.333 751,660.5C 751.725,662.158 752.892,662.658 754.5,662C 756.09,660.954 757.59,659.787 759,658.5C 759.684,657.216 759.517,656.049 758.5,655C 764.399,651.221 770.399,647.721 776.5,644.5 Z M 1068.5,646.5 C 1059.98,655.519 1051.31,664.352 1042.5,673C 1041.09,673.315 1039.76,672.982 1038.5,672C 1047.8,662.517 1057.8,654.017 1068.5,646.5 Z M 901.5,663.5 C 902.496,677.323 902.829,691.323 902.5,705.5C 899.834,705.067 897.168,704.567 894.5,704C 893.572,703.612 892.905,702.945 892.5,702C 896.055,689.28 899.055,676.447 901.5,663.5 Z M 346.5,668.5 C 344.972,668.483 344.472,667.816 345,666.5C 345.717,667.044 346.217,667.711 346.5,668.5 Z M 346.5,668.5 C 372.113,682.308 397.779,696.142 423.5,710C 421.706,713.088 420.039,716.254 418.5,719.5C 417.635,720.583 416.635,720.749 415.5,720C 391.752,703.74 368.752,686.573 346.5,668.5 Z M 417.5,670.5 C 422.105,678.781 426.438,687.281 430.5,696C 429.333,697.833 428.167,699.667 427,701.5C 422.919,691.425 419.752,681.091 417.5,670.5 Z M 552.5,685.5 C 551.542,685.047 550.708,684.381 550,683.5C 548.833,679.187 548.166,674.853 548,670.5C 549.405,675.548 550.905,680.548 552.5,685.5 Z M 522.5,672.5 C 529.84,680.653 536.84,689.153 543.5,698C 542.5,699 541.5,700 540.5,701C 533.218,692.67 527.218,683.17 522.5,672.5 Z M 533.5,675.5 C 541.216,679.554 545.883,685.888 547.5,694.5C 542.113,688.738 537.446,682.405 533.5,675.5 Z M 563.5,695.5 C 566.107,694.198 568.773,694.364 571.5,696C 568.779,696.602 566.113,696.435 563.5,695.5 Z M 558.5,702.5 C 560.484,702.383 562.15,703.05 563.5,704.5C 559.849,708.652 556.016,712.652 552,716.5C 552.309,710.887 554.476,706.22 558.5,702.5 Z M 546.5,703.5 C 548.048,703.821 548.715,704.821 548.5,706.5C 547.448,706.649 546.448,706.483 545.5,706C 546.252,705.329 546.586,704.496 546.5,703.5 Z M 701.5,908.5 C 701.649,907.448 701.483,906.448 701,905.5C 699.178,908.321 697.011,910.821 694.5,913C 689.747,915.458 685.247,918.292 681,921.5C 679.51,920.272 678.01,920.272 676.5,921.5C 676.657,920.127 676.49,918.793 676,917.5C 675.288,922.211 673.455,926.378 670.5,930C 672.308,932.041 672.974,934.207 672.5,936.5C 673.543,933.579 675.21,931.079 677.5,929C 687.3,921.927 697.633,915.594 708.5,910C 713.471,904.184 719.138,899.35 725.5,895.5C 723.221,897.723 722.388,900.389 723,903.5C 726.305,901.059 727.472,898.059 726.5,894.5C 731.805,889.366 737.305,884.366 743,879.5C 743.595,883.082 744.929,883.416 747,880.5C 748.38,877.572 749.88,874.738 751.5,872C 750.991,870.831 750.158,869.998 749,869.5C 743.543,871.895 738.209,874.562 733,877.5C 732.805,875.793 732.805,874.126 733,872.5C 730.423,874.655 728.589,877.321 727.5,880.5C 725.998,881.083 724.665,881.916 723.5,883C 707.802,891.182 692.135,899.348 676.5,907.5C 673.522,906.382 672.188,904.215 672.5,901C 674.533,896.034 675.867,890.867 676.5,885.5C 674.204,889.869 672.371,894.536 671,899.5C 666.864,889.229 662.197,879.229 657,869.5C 655.5,867.667 654,865.833 652.5,864C 651.551,863.383 650.718,863.549 650,864.5C 651.052,879.878 654.552,894.712 660.5,909C 660.167,909.167 659.833,909.333 659.5,909.5C 653.306,904.806 646.972,900.306 640.5,896C 625.838,881.692 610.838,867.859 595.5,854.5C 610.46,822.565 627.96,792.231 648,763.5C 651.37,760.465 654.37,757.132 657,753.5C 667.622,760.062 678.789,765.395 690.5,769.5C 690.804,768.85 691.137,768.183 691.5,767.5C 690.476,766.148 689.476,764.815 688.5,763.5C 690.792,763.756 692.959,763.423 695,762.5C 695.333,763.833 695.667,765.167 696,766.5C 698.476,768.063 699.976,767.396 700.5,764.5C 696.989,749.945 693.989,735.279 691.5,720.5C 691.529,718.971 692.196,717.804 693.5,717C 692.5,716 691.5,715 690.5,714C 692.808,708.364 696.975,704.864 703,703.5C 704.37,725.165 705.704,746.831 707,768.5C 707.953,770.592 709.286,770.925 711,769.5C 711.167,767.5 711.333,765.5 711.5,763.5C 710.334,753.517 709.834,743.517 710,733.5C 711.91,745.116 713.41,756.783 714.5,768.5C 715.328,769.415 716.328,770.081 717.5,770.5C 726.137,765.511 734.471,760.011 742.5,754C 758.391,740.474 774.558,727.308 791,714.5C 792.469,717.658 793.469,720.991 794,724.5C 794.175,736.885 794.342,749.218 794.5,761.5C 792.584,771.738 791.251,782.071 790.5,792.5C 790.779,796.564 791.446,800.564 792.5,804.5C 791.083,812.851 789.083,821.018 786.5,829C 787.24,830.785 787.907,832.618 788.5,834.5C 785.803,857.347 781.97,880.347 777,903.5C 772.298,931.795 767.631,959.795 763,987.5C 760.088,989.365 759.922,991.365 762.5,993.5C 761.194,994.912 760.36,996.579 760,998.5C 748.77,1050.51 736.603,1102.17 723.5,1153.5C 721.897,1153.31 720.563,1153.81 719.5,1155C 720.64,1156.97 721.973,1158.81 723.5,1160.5C 702.165,1168.5 680.832,1176.5 659.5,1184.5C 658.924,1167 658.258,1149.5 657.5,1132C 657.285,1128.41 657.952,1125.08 659.5,1122C 659.389,1120.28 658.889,1120.11 658,1121.5C 656.594,1112.5 656.427,1103.5 657.5,1094.5C 657.167,1093.83 656.833,1093.17 656.5,1092.5C 655.281,1093.65 653.948,1094.65 652.5,1095.5C 651.726,1099.78 651.226,1104.11 651,1108.5C 650.464,1110.87 649.297,1112.87 647.5,1114.5C 646.243,1109.88 645.243,1105.21 644.5,1100.5C 643.167,1100.5 641.833,1100.5 640.5,1100.5C 641.52,1110.27 643.186,1119.93 645.5,1129.5C 645.167,1130.83 644.833,1132.17 644.5,1133.5C 648.427,1140.01 648.927,1146.68 646,1153.5C 644.693,1160.33 645.859,1161 649.5,1155.5C 651.372,1164.86 653.372,1174.19 655.5,1183.5C 655.43,1184.77 655.097,1185.94 654.5,1187C 648.493,1190.19 642.159,1191.85 635.5,1192C 632.108,1189.71 630.441,1186.55 630.5,1182.5C 628.345,1182.63 626.345,1182.13 624.5,1181C 607.569,1168.85 592.235,1154.85 578.5,1139C 576.888,1138.28 575.388,1138.45 574,1139.5C 573.338,1136.58 571.505,1135.25 568.5,1135.5C 568.54,1132.12 568.207,1128.79 567.5,1125.5C 569.199,1125.62 570.865,1125.95 572.5,1126.5C 575.975,1125.71 576.308,1124.21 573.5,1122C 571.236,1121.76 569.069,1121.26 567,1120.5C 566.333,1119.5 566.333,1118.5 567,1117.5C 571.748,1114.71 571.581,1112.38 566.5,1110.5C 565.453,1107.93 564.786,1105.27 564.5,1102.5C 566.372,1098.1 568.539,1093.76 571,1089.5C 571.494,1087.87 571.66,1086.2 571.5,1084.5C 570.325,1084.28 569.325,1084.61 568.5,1085.5C 567,1087.83 565.5,1090.17 564,1092.5C 562.499,1086.01 562.332,1079.51 563.5,1073C 561.899,1069.75 561.066,1066.25 561,1062.5C 556.922,1026.34 557.922,990.34 564,954.5C 566.178,948.249 567.511,948.249 568,954.5C 572.624,939.483 575.957,924.15 578,908.5C 581.911,892.182 586.744,876.182 592.5,860.5C 593.552,860.351 594.552,860.517 595.5,861C 614.774,878.272 633.441,896.272 651.5,915C 654.763,918.776 656.929,918.276 658,913.5C 658.804,914.804 659.971,915.471 661.5,915.5C 663.05,914.268 664.717,913.768 666.5,914C 664.072,922.218 661.572,930.385 659,938.5C 657.184,933.846 656.017,929.013 655.5,924C 658.303,921.778 658.137,919.945 655,918.5C 652.491,919.829 650.658,921.829 649.5,924.5C 632.096,932.456 614.763,940.289 597.5,948C 598.167,948.667 598.833,949.333 599.5,950C 602.833,950.667 606.167,950.667 609.5,950C 623.165,943.669 637.165,938.169 651.5,933.5C 652.624,934.914 653.624,936.414 654.5,938C 654.821,950.715 651.821,962.715 645.5,974C 646.5,975 647.5,976 648.5,977C 647.287,979.687 646.62,982.52 646.5,985.5C 648.144,985.714 649.644,985.38 651,984.5C 655.718,969.675 661.218,955.175 667.5,941C 666.663,938.319 665.33,935.986 663.5,934C 665.657,926.861 667.823,919.694 670,912.5C 671.726,911.424 673.559,911.257 675.5,912C 677.348,914.179 679.515,916.013 682,917.5C 684.051,915.191 683.884,913.024 681.5,911C 691.339,905.246 701.339,899.746 711.5,894.5C 711.438,896.26 711.438,898.094 711.5,900C 708.568,903.442 705.235,906.275 701.5,908.5 Z M 579.5,705.5 C 603.325,705.933 603.325,707.599 579.5,710.5C 578.263,710.444 577.263,709.944 576.5,709C 577.71,707.961 578.71,706.794 579.5,705.5 Z M 903.5,715.5 C 902.739,716.391 901.739,717.058 900.5,717.5C 898.112,715.639 895.446,714.306 892.5,713.5C 891.571,712.311 891.238,710.978 891.5,709.5C 894.271,709.421 896.937,709.921 899.5,711C 899.332,713.363 900.665,714.863 903.5,715.5 Z M 545.5,714.5 C 547.978,716.483 548.145,718.816 546,721.5C 544.585,719.157 544.418,716.823 545.5,714.5 Z M 528.5,722.5 C 530.867,721.086 533.367,719.752 536,718.5C 536.167,718.833 536.333,719.167 536.5,719.5C 534.142,721.287 531.475,722.287 528.5,722.5 Z M 893.5,718.5 C 895.085,719.002 895.585,720.002 895,721.5C 893.961,720.756 893.461,719.756 893.5,718.5 Z M 907.5,718.5 C 908.737,719.743 908.404,720.743 906.5,721.5C 906.167,721.167 905.833,720.833 905.5,720.5C 906.243,719.818 906.909,719.151 907.5,718.5 Z M 519.5,725.5 C 521.253,723.601 523.253,722.935 525.5,723.5C 523.696,724.768 521.696,725.435 519.5,725.5 Z M 685.5,722.5 C 686.931,722.881 687.764,723.881 688,725.5C 689.688,736.468 691.854,747.301 694.5,758C 693.5,758.5 692.5,759 691.5,759.5C 681.895,755.699 672.895,750.866 664.5,745C 670.661,736.674 677.661,729.174 685.5,722.5 Z M 560.5,723.5 C 561.124,723.917 561.457,724.584 561.5,725.5C 560.726,733.805 560.226,742.139 560,750.5C 558.244,743.975 556.411,737.475 554.5,731C 554.886,727.122 556.886,724.622 560.5,723.5 Z M 899.5,723.5 C 900.5,723.5 901.5,723.5 902.5,723.5C 902.185,725.226 902.019,726.893 902,728.5C 903.333,729.833 904.667,729.833 906,728.5C 910.183,732.067 910.516,736.067 907,740.5C 905.167,742.167 903.333,743.833 901.5,745.5C 899.201,739.654 897.201,733.654 895.5,727.5C 897.769,726.995 899.103,725.662 899.5,723.5 Z M 418.5,730.5 C 419.043,730.56 419.376,730.893 419.5,731.5C 406.329,761.518 398.162,792.851 395,825.5C 392.049,822.428 389.216,819.261 386.5,816C 394.694,786.585 405.361,758.085 418.5,730.5 Z M 410.5,732.5 C 411.239,732.369 411.906,732.536 412.5,733C 411.929,734.205 411.262,735.372 410.5,736.5C 408.224,735.787 405.891,735.287 403.5,735C 406.004,734.302 408.337,733.469 410.5,732.5 Z M 398.5,736.5 C 399.598,737.397 399.598,738.23 398.5,739C 377.363,741.109 377.363,740.275 398.5,736.5 Z M 649.5,741.5 C 654.532,741.332 654.699,742.332 650,744.5C 648.272,743.648 648.105,742.648 649.5,741.5 Z M 688.5,763.5 C 678.544,760.356 669.211,755.856 660.5,750C 661,749.5 661.5,749 662,748.5C 670.36,754.427 679.193,759.427 688.5,763.5 Z M 1095.5,761.5 C 1097.46,761.948 1097.8,762.948 1096.5,764.5C 1095.61,763.675 1095.28,762.675 1095.5,761.5 Z M 385.5,798.5 C 385.577,792.282 386.744,786.282 389,780.5C 390.251,787.08 389.085,793.08 385.5,798.5 Z M 1100.5,783.5 C 1101.5,783.5 1102.5,783.5 1103.5,783.5C 1106.23,803.183 1106.06,822.849 1103,842.5C 1094.34,851.821 1087.18,862.155 1081.5,873.5C 1082.85,875.657 1084.85,876.99 1087.5,877.5C 1084.25,877.808 1080.92,877.975 1077.5,878C 1072.33,880.421 1072.33,883.087 1077.5,886C 1083.63,889.4 1089.96,892.234 1096.5,894.5C 1095.41,905.611 1092.58,916.278 1088,926.5C 1077.23,949.383 1065.89,972.05 1054,994.5C 1048.43,998.724 1044.43,1004.06 1042,1010.5C 1040.23,1011.3 1038.73,1012.47 1037.5,1014C 1038.69,1015.02 1039.69,1016.19 1040.5,1017.5C 1033.59,1030.33 1026.42,1043 1019,1055.5C 1004.67,1077.5 990.333,1099.5 976,1121.5C 972.5,1125.67 969,1129.83 965.5,1134C 955.786,1134.16 946.453,1132.32 937.5,1128.5C 938.189,1126.56 938.689,1124.56 939,1122.5C 963.33,1088.19 983.83,1051.53 1000.5,1012.5C 1002.47,1011.63 1004.47,1011.79 1006.5,1013C 1013.61,1016.55 1020.94,1019.55 1028.5,1022C 1032.9,1023.11 1034.23,1021.61 1032.5,1017.5C 1030.64,1016.47 1029.31,1014.97 1028.5,1013C 1020.47,1008.99 1012.8,1004.49 1005.5,999.5C 1012.42,975.235 1021.59,951.901 1033,929.5C 1032.98,934.6 1031.81,939.434 1029.5,944C 1029.67,944.833 1029.83,945.667 1030,946.5C 1030.67,947.833 1031.33,947.833 1032,946.5C 1034.12,934.454 1036.45,922.454 1039,910.5C 1040.25,909.789 1041.42,908.956 1042.5,908C 1057.83,907.889 1073.16,908.055 1088.5,908.5C 1088.75,905.495 1087.75,902.995 1085.5,901C 1070.42,901.021 1055.42,900.188 1040.5,898.5C 1046.12,871.058 1048.62,843.391 1048,815.5C 1065.31,804.431 1082.81,793.765 1100.5,783.5 Z M 1082.5,788.5 C 1071.15,795.6 1059.65,802.6 1048,809.5C 1046.34,806.711 1046.17,803.877 1047.5,801C 1058.94,796.133 1070.6,791.966 1082.5,788.5 Z M 718.5,800.5 C 716.399,797.821 714.399,794.988 712.5,792C 714.025,790.991 715.692,790.491 717.5,790.5C 717.833,793.833 718.167,797.167 718.5,800.5 Z M 1034.5,800.5 C 1035.87,800.343 1037.21,800.51 1038.5,801C 1037.17,802 1037.17,803 1038.5,804C 1039.78,804.684 1040.95,804.517 1042,803.5C 1045.52,819.974 1040.02,824.141 1025.5,816C 1026.26,813.931 1026.76,811.764 1027,809.5C 1029.35,806.287 1031.85,803.287 1034.5,800.5 Z M 370.5,804.5 C 373.469,807.642 376.302,810.975 379,814.5C 379.667,817.167 379.667,819.833 379,822.5C 375.882,816.599 373.049,810.599 370.5,804.5 Z M 874.5,813.5 C 878.423,814.795 882.09,816.628 885.5,819C 880.844,819.185 877.178,817.351 874.5,813.5 Z M 383.5,820.5 C 386.933,823.83 390.266,827.33 393.5,831C 391.027,833.437 388.027,834.604 384.5,834.5C 384.563,829.797 384.229,825.13 383.5,820.5 Z M 1023.5,820.5 C 1024.77,821.09 1026.1,821.59 1027.5,822C 1025.54,822.844 1024.2,822.344 1023.5,820.5 Z M 890.5,826.5 C 893.945,827.093 897.279,828.093 900.5,829.5C 899.469,830.7 898.635,832.034 898,833.5C 895.002,831.667 892.502,829.334 890.5,826.5 Z M 926.5,829.5 C 928.655,829.372 930.655,829.872 932.5,831C 929.203,833.295 926.203,835.962 923.5,839C 925.943,842.006 928.443,841.839 931,838.5C 933.793,840.989 936.46,840.655 939,837.5C 937.834,840.844 936.334,844.178 934.5,847.5C 934.453,849 935.119,850 936.5,850.5C 938.718,849.076 940.218,847.076 941,844.5C 941.423,848.142 940.589,851.476 938.5,854.5C 936.929,853.691 935.262,853.357 933.5,853.5C 933.162,856.157 933.829,858.49 935.5,860.5C 934.855,861.646 934.022,862.646 933,863.5C 929.731,861.099 927.564,858.099 926.5,854.5C 924.234,854.141 922.401,854.808 921,856.5C 920.663,853.139 920.163,849.806 919.5,846.5C 921.543,840.743 923.876,835.076 926.5,829.5 Z M 910.5,833.5 C 912.051,835.78 913.385,838.28 914.5,841C 913.922,842.811 913.422,844.645 913,846.5C 911.315,844.983 909.815,843.316 908.5,841.5C 909.482,838.904 910.149,836.238 910.5,833.5 Z M 390.5,837.5 C 391.833,837.5 393.167,837.5 394.5,837.5C 394.799,839.604 394.466,841.604 393.5,843.5C 392.549,844.326 391.549,844.492 390.5,844C 391.38,842.644 391.714,841.144 391.5,839.5C 389.856,839.286 388.356,839.62 387,840.5C 386.833,840.167 386.667,839.833 386.5,839.5C 387.949,838.828 389.282,838.161 390.5,837.5 Z M 374.5,840.5 C 382.171,841.763 381.837,843.263 373.5,845C 363.175,845.958 352.842,846.291 342.5,846C 353.359,844.469 364.026,842.635 374.5,840.5 Z M 900.5,846.5 C 903.152,848.462 903.152,850.462 900.5,852.5C 899.306,850.484 899.306,848.484 900.5,846.5 Z M 390.5,852.5 C 391.833,852.5 393.167,852.5 394.5,852.5C 394.662,854.527 394.495,856.527 394,858.5C 391.75,859.708 389.583,861.041 387.5,862.5C 384.24,857.768 385.24,854.435 390.5,852.5 Z M 915.5,855.5 C 916.726,859.645 917.226,863.978 917,868.5C 914.288,864.471 913.788,860.138 915.5,855.5 Z M 360.5,879.5 C 367.137,873.033 373.97,866.7 381,860.5C 381.758,862.769 381.591,864.936 380.5,867C 373.945,871.439 367.279,875.605 360.5,879.5 Z M 921.5,861.5 C 923.94,863.055 925.94,865.055 927.5,867.5C 922.074,869.36 920.074,867.36 921.5,861.5 Z M 909.5,863.5 C 910.434,864.568 910.768,865.901 910.5,867.5C 909.325,867.719 908.325,867.386 907.5,866.5C 908.193,865.482 908.859,864.482 909.5,863.5 Z M 1100.5,863.5 C 1100.48,865.028 1099.82,865.528 1098.5,865C 1099.04,864.283 1099.71,863.783 1100.5,863.5 Z M 393.5,864.5 C 394.389,868.822 395.056,873.322 395.5,878C 395.167,879.167 394.833,880.333 394.5,881.5C 392.618,882.093 390.785,882.76 389,883.5C 387.949,879.044 387.116,874.544 386.5,870C 388.871,868.156 391.205,866.323 393.5,864.5 Z M 938.5,869.5 C 939.497,868.287 940.497,868.454 941.5,870C 940.423,870.47 939.423,870.303 938.5,869.5 Z M 466.5,1011.5 C 463.616,1006.76 460.449,1002.09 457,997.5C 456.333,996.167 456.333,994.833 457,993.5C 458.892,992.383 459.725,990.716 459.5,988.5C 457.801,988.66 456.134,988.494 454.5,988C 456.788,987.178 459.122,986.511 461.5,986C 462.816,984.022 462.316,982.522 460,981.5C 458.215,982.24 456.382,982.907 454.5,983.5C 441.508,968.173 428.508,952.84 415.5,937.5C 413.878,935.561 412.044,935.228 410,936.5C 405.146,919.546 402.313,902.38 401.5,885C 423.034,879.793 444.701,875.293 466.5,871.5C 461.176,908.874 460.176,946.374 463.5,984C 462.381,987.408 461.714,990.908 461.5,994.5C 462.5,994.5 463.5,994.5 464.5,994.5C 465.354,1000.14 466.02,1005.81 466.5,1011.5 Z M 978.5,929.5 C 977.211,927.752 975.711,927.419 974,928.5C 973.333,930.833 973.333,933.167 974,935.5C 979.483,954.131 985.816,972.465 993,990.5C 993.781,991.944 993.614,993.277 992.5,994.5C 987.315,996.088 982.149,997.755 977,999.5C 975.395,997.936 973.562,997.436 971.5,998C 959.281,1003.56 946.948,1008.4 934.5,1012.5C 934.602,1000.82 934.269,989.15 933.5,977.5C 937.846,977.666 942.179,977.499 946.5,977C 947.38,975.644 947.714,974.144 947.5,972.5C 949.167,972.5 950.833,972.5 952.5,972.5C 952.714,970.856 952.38,969.356 951.5,968C 945.175,967.5 938.842,967.334 932.5,967.5C 929.898,936.413 926.564,905.413 922.5,874.5C 925.766,874.371 928.766,873.371 931.5,871.5C 939.667,883.167 947.833,894.833 956,906.5C 958.635,909.506 960.635,909.172 962,905.5C 964.63,909.132 967.63,912.465 971,915.5C 973.78,920.062 976.28,924.728 978.5,929.5 Z M 1104.5,874.5 C 1105.92,874.709 1107.26,875.209 1108.5,876C 1106.54,876.844 1105.2,876.344 1104.5,874.5 Z M 656.5,879.5 C 661.148,887.903 665.148,896.736 668.5,906C 667.968,908.02 666.635,908.853 664.5,908.5C 661.833,898.833 659.167,889.167 656.5,879.5 Z M 1081.5,883.5 C 1082.95,882.387 1084.61,882.22 1086.5,883C 1090.88,883.843 1094.88,885.343 1098.5,887.5C 1098.08,888.672 1097.41,889.672 1096.5,890.5C 1091.6,887.882 1086.6,885.548 1081.5,883.5 Z M 394.5,886.5 C 399.501,912.324 405.001,938.324 411,964.5C 413.662,975.983 416.828,987.317 420.5,998.5C 419.726,999.711 418.893,999.711 418,998.5C 416.667,995.833 415.333,993.167 414,990.5C 409.995,976.153 404.995,962.153 399,948.5C 397.816,944.551 397.482,940.551 398,936.5C 399.356,935.62 400.856,935.286 402.5,935.5C 402.662,933.473 402.495,931.473 402,929.5C 400.028,928.695 398.528,927.361 397.5,925.5C 398.654,922.898 399.154,920.232 399,917.5C 396.546,915.987 394.879,916.654 394,919.5C 391.977,909.334 390.144,899.167 388.5,889C 390.611,888.155 392.611,887.322 394.5,886.5 Z M 727.5,886.5 C 723.485,890.513 719.152,894.179 714.5,897.5C 714.829,895.009 715.829,892.843 717.5,891C 720.736,889.214 724.07,887.714 727.5,886.5 Z M 787.5,900.5 C 787.246,906.095 786.246,911.428 784.5,916.5C 784.754,910.905 785.754,905.572 787.5,900.5 Z M 567.5,940.5 C 567.678,937.784 568.178,935.117 569,932.5C 569.703,935.482 569.203,938.149 567.5,940.5 Z M 371.5,942.5 C 370.998,944.085 369.998,944.585 368.5,944C 369.244,942.961 370.244,942.461 371.5,942.5 Z M 411.5,944.5 C 421.273,961.201 431.94,977.368 443.5,993C 437.183,994.663 430.849,996.163 424.5,997.5C 419.383,980.032 415.05,962.365 411.5,944.5 Z M 901.5,955.5 C 903.167,955.5 904.833,955.5 906.5,955.5C 906.798,958.265 907.798,960.765 909.5,963C 910.833,963.667 912.167,963.667 913.5,963C 914.05,961.155 915.05,959.655 916.5,958.5C 918.481,959.105 918.815,960.105 917.5,961.5C 918.263,962.719 919.263,963.719 920.5,964.5C 918.257,965.474 915.924,965.808 913.5,965.5C 913.5,966.5 913.5,967.5 913.5,968.5C 910.14,968.616 906.807,968.949 903.5,969.5C 903.548,972.313 904.215,974.979 905.5,977.5C 898.393,978.764 894.059,975.764 892.5,968.5C 893.506,964.785 895.673,962.118 899,960.5C 899.617,959.551 899.451,958.718 898.5,958C 899.571,957.148 900.571,956.315 901.5,955.5 Z M 426.5,958.5 C 435.004,966.839 443.004,975.672 450.5,985C 449.736,987.069 449.236,989.236 449,991.5C 439.996,981.482 432.496,970.482 426.5,958.5 Z M 488.5,965.5 C 484.107,973.278 479.44,980.944 474.5,988.5C 473.353,986.235 473.186,983.902 474,981.5C 478.616,975.905 483.45,970.571 488.5,965.5 Z M 909.5,975.5 C 910.386,974.224 911.386,974.224 912.5,975.5C 911.575,976.562 910.575,976.562 909.5,975.5 Z M 928.5,977.5 C 929.945,987.645 930.445,997.978 930,1008.5C 924.375,1000.09 918.875,991.585 913.5,983C 914.833,981.667 916.167,980.333 917.5,979C 921.356,978.823 925.023,978.323 928.5,977.5 Z M 694.5,979.5 C 695.239,979.369 695.906,979.536 696.5,980C 691.333,985.833 686.167,991.667 681,997.5C 680.309,995.109 679.309,995.109 678,997.5C 675.56,1003.47 671.393,1007.81 665.5,1010.5C 663.611,1009.4 661.945,1008.06 660.5,1006.5C 671.864,997.492 683.197,988.492 694.5,979.5 Z M 886.5,981.5 C 887.922,981.709 889.255,982.209 890.5,983C 888.641,984.558 887.141,986.391 886,988.5C 885.982,986.203 886.149,983.869 886.5,981.5 Z M 916.5,997.5 C 912.81,994.809 909.81,991.476 907.5,987.5C 908.176,985.646 909.176,985.313 910.5,986.5C 912.779,990.061 914.779,993.727 916.5,997.5 Z M 446.5,996.5 C 448.247,998.428 449.913,1000.59 451.5,1003C 444.317,1004.75 437.15,1006.59 430,1008.5C 428.19,1006.93 427.023,1004.93 426.5,1002.5C 433.214,1000.26 439.88,998.258 446.5,996.5 Z M 622.5,1046.5 C 629.422,1037.07 637.255,1028.41 646,1020.5C 649.025,1015.57 647.858,1012.23 642.5,1010.5C 641.081,1007.5 641.581,1004.84 644,1002.5C 647.055,998.196 650.888,996.696 655.5,998C 656.687,999.019 657.687,1000.19 658.5,1001.5C 656.356,1002.28 654.356,1003.45 652.5,1005C 654.43,1008.05 656.93,1010.55 660,1012.5C 660.309,1013.77 660.809,1014.93 661.5,1016C 660.333,1017.17 659.167,1018.33 658,1019.5C 657.667,1019.17 657.333,1018.83 657,1018.5C 656.333,1019.83 655.667,1021.17 655,1022.5C 652.5,1022.33 650,1022.17 647.5,1022C 646.833,1023.67 646.167,1025.33 645.5,1027C 637.667,1033.34 630,1039.84 622.5,1046.5 Z M 992.5,999.5 C 993.5,999.5 994.5,999.5 995.5,999.5C 995.815,1001.23 995.981,1002.89 996,1004.5C 994.301,1003.59 992.467,1003.26 990.5,1003.5C 990.808,1007.01 992.808,1008.68 996.5,1008.5C 975.038,1059.78 947.205,1107.12 913,1150.5C 907.976,1140.29 902.81,1130.12 897.5,1120C 907.949,1099.94 917.449,1079.44 926,1058.5C 929.753,1048.07 932.587,1037.41 934.5,1026.5C 941.019,1036.03 948.352,1045.03 956.5,1053.5C 958.185,1054.51 959.518,1054.01 960.5,1052C 952.181,1040.34 943.848,1028.68 935.5,1017C 955.019,1013.55 974.019,1007.72 992.5,999.5 Z M 423.5,1008.5 C 422.399,1007.15 421.399,1005.65 420.5,1004C 422.773,1004.32 423.773,1005.82 423.5,1008.5 Z M 370.5,1018.5 C 385.286,1012.47 400.619,1008.3 416.5,1006C 418.146,1007.55 418.479,1009.22 417.5,1011C 402.07,1015.02 386.403,1017.52 370.5,1018.5 Z M 1003.5,1005.5 C 1007.77,1007.32 1008.1,1007.98 1004.5,1007.5C 1003.7,1007.04 1003.37,1006.38 1003.5,1005.5 Z M 450.5,1007.5 C 451.043,1007.56 451.376,1007.89 451.5,1008.5C 447.333,1016.17 443.167,1023.83 439,1031.5C 435.748,1025.5 432.914,1019.33 430.5,1013C 437.377,1011.45 444.044,1009.62 450.5,1007.5 Z M 675.5,1011.5 C 674.651,1016.28 672.651,1017.11 669.5,1014C 670.978,1011.96 672.978,1011.13 675.5,1011.5 Z M 454.5,1012.5 C 456.196,1012.69 457.529,1013.52 458.5,1015C 453.459,1023.58 448.292,1032.08 443,1040.5C 441.813,1038.96 441.48,1037.29 442,1035.5C 446.179,1027.81 450.346,1020.14 454.5,1012.5 Z M 637.5,1015.5 C 642.208,1015.01 642.708,1016.34 639,1019.5C 638.209,1018.26 637.709,1016.92 637.5,1015.5 Z M 662.5,1016.5 C 663.552,1016.35 664.552,1016.52 665.5,1017C 678.79,1027.55 677.79,1028.72 662.5,1020.5C 661.708,1019.3 661.708,1017.97 662.5,1016.5 Z M 609.5,1030.5 C 616.019,1026.99 622.519,1023.32 629,1019.5C 631.176,1019.99 633.009,1020.99 634.5,1022.5C 626.706,1026.76 618.373,1029.43 609.5,1030.5 Z M 659.5,1024.5 C 663.114,1026.31 666.78,1028.14 670.5,1030C 668.965,1032.62 667.798,1035.46 667,1038.5C 663.5,1035 660,1031.5 656.5,1028C 657.71,1026.96 658.71,1025.79 659.5,1024.5 Z M 678.5,1028.5 C 676.972,1028.48 676.472,1027.82 677,1026.5C 677.717,1027.04 678.217,1027.71 678.5,1028.5 Z M 678.5,1028.5 C 680.027,1028.43 681.027,1029.09 681.5,1030.5C 679.973,1030.57 678.973,1029.91 678.5,1028.5 Z M 683.5,1037.5 C 682.185,1038.48 680.852,1039.48 679.5,1040.5C 671.461,1031.03 672.794,1030.03 683.5,1037.5 Z M 676.5,1046.5 C 673.703,1044.2 671.036,1041.7 668.5,1039C 669.536,1037.38 670.703,1037.22 672,1038.5C 673.777,1041.06 675.277,1043.73 676.5,1046.5 Z M 427.5,1068.5 C 429.816,1060.2 432.983,1052.2 437,1044.5C 437.465,1045.93 438.299,1047.1 439.5,1048C 435.238,1054.74 431.238,1061.58 427.5,1068.5 Z M 478.5,1044.5 C 479.703,1045.94 480.203,1047.61 480,1049.5C 478.731,1048.1 478.231,1046.43 478.5,1044.5 Z M 883.5,1050.5 C 890.704,1051.22 893.87,1055.22 893,1062.5C 892.337,1066.04 890.837,1069.04 888.5,1071.5C 891.986,1063.12 890.32,1056.12 883.5,1050.5 Z M 877.5,1053.5 C 885.523,1056.26 887.69,1061.59 884,1069.5C 877.883,1079 875.549,1078.33 877,1067.5C 875.266,1066.75 873.433,1066.25 871.5,1066C 875.524,1062.79 877.524,1058.62 877.5,1053.5 Z M 870.5,1054.5 C 871.675,1054.28 872.675,1054.61 873.5,1055.5C 871.883,1058.78 869.55,1061.45 866.5,1063.5C 865.618,1062.24 864.618,1061.07 863.5,1060C 865.903,1058.15 868.236,1056.31 870.5,1054.5 Z M 859.5,1071.5 C 863.034,1070.21 866.701,1070.21 870.5,1071.5C 871.795,1074.01 872.461,1076.68 872.5,1079.5C 866.418,1079.36 862.085,1076.69 859.5,1071.5 Z M 857.5,1078.5 C 861.357,1080.43 864.357,1083.26 866.5,1087C 861.888,1086.75 858.554,1084.42 856.5,1080C 857.056,1079.62 857.389,1079.12 857.5,1078.5 Z M 493.5,1082.5 C 495.293,1084.43 496.293,1086.76 496.5,1089.5C 494.707,1087.57 493.707,1085.24 493.5,1082.5 Z M 874.5,1082.5 C 875.525,1082.9 875.692,1083.56 875,1084.5C 873.182,1086.65 871.682,1086.65 870.5,1084.5C 871.949,1083.83 873.282,1083.16 874.5,1082.5 Z M 496.5,1089.5 C 497.931,1090.78 498.598,1092.45 498.5,1094.5C 497.069,1093.22 496.402,1091.55 496.5,1089.5 Z M 888.5,1112.5 C 883.775,1106.07 879.275,1099.41 875,1092.5C 874.817,1089.72 875.984,1089.05 878.5,1090.5C 882.033,1097.77 885.366,1105.11 888.5,1112.5 Z M 545.5,1112.5 C 547.364,1111.21 549.364,1111.21 551.5,1112.5C 549.599,1113.23 547.599,1113.23 545.5,1112.5 Z M 651.5,1113.5 C 652.603,1116.17 651.603,1118.17 648.5,1119.5C 648.167,1119.17 647.833,1118.83 647.5,1118.5C 648.857,1116.81 650.19,1115.15 651.5,1113.5 Z M 651.5,1118.5 C 652.924,1120.51 653.59,1122.85 653.5,1125.5C 651.891,1125.91 650.557,1125.91 649.5,1125.5C 651.171,1123.49 651.838,1121.16 651.5,1118.5 Z M 652.5,1128.5 C 653.648,1132.98 653.815,1137.65 653,1142.5C 650.474,1137.8 650.308,1133.13 652.5,1128.5 Z M 891.5,1129.5 C 892.496,1129.41 893.329,1129.75 894,1130.5C 898.772,1138.93 903.938,1147.1 909.5,1155C 909.167,1155.33 908.833,1155.67 908.5,1156C 902.21,1155.28 895.877,1154.28 889.5,1153C 885.921,1152.21 882.588,1150.87 879.5,1149C 884.149,1142.86 888.149,1136.36 891.5,1129.5 Z"/></g>
<g><path style="opacity:0.492" fill="#000000" d="M 639.5,545.5 C 641.451,545.227 642.951,545.893 644,547.5C 647.523,567.927 651.523,588.26 656,608.5C 656.999,613.813 657.332,619.146 657,624.5C 652.461,628.603 648.128,628.27 644,623.5C 640.886,599.76 639.053,575.927 638.5,552C 638.653,549.784 638.986,547.617 639.5,545.5 Z M 643.5,574.5 C 645.321,590.721 646.988,606.721 648.5,622.5C 649.651,623.731 650.817,623.731 652,622.5C 651.42,606.016 648.587,590.016 643.5,574.5 Z"/></g>
<g><path style="opacity:0.006" fill="#000000" d="M 736.5,626.5 C 738.648,626.389 738.981,627.056 737.5,628.5C 736.635,629.583 735.635,629.749 734.5,629C 735.381,628.292 736.047,627.458 736.5,626.5 Z"/></g>
<g><path style="opacity:0.005" fill="#000000" d="M 774.5,749.5 C 775.713,750.497 775.546,751.497 774,752.5C 773.53,751.423 773.697,750.423 774.5,749.5 Z"/></g>
<g><path style="opacity:0.004" fill="#000000" d="M 632.5,750.5 C 634.983,750.73 635.483,751.397 634,752.5C 632.97,752.164 632.47,751.497 632.5,750.5 Z"/></g>
<g><path style="opacity:0.004" fill="#000000" d="M 767.5,750.5 C 768.688,752.496 768.021,753.329 765.5,753C 766.381,752.292 767.047,751.458 767.5,750.5 Z"/></g>
<g><path style="opacity:0.009" fill="#000000" d="M 637.5,752.5 C 639.625,753.368 639.791,754.368 638,755.5C 636.317,754.824 636.15,753.824 637.5,752.5 Z"/></g>
<g><path style="opacity:0.006" fill="#000000" d="M 625.5,754.5 C 626.376,754.369 627.043,754.702 627.5,755.5C 626.219,758.447 624.219,760.781 621.5,762.5C 620.417,761.635 620.251,760.635 621,759.5C 622.707,757.963 624.207,756.296 625.5,754.5 Z"/></g>
<g><path style="opacity:0.006" fill="#000000" d="M 814.5,761.5 C 819.238,761.602 819.238,762.935 814.5,765.5C 813.374,764.192 813.374,762.858 814.5,761.5 Z"/></g>
<g><path style="opacity:0.01" fill="#000000" d="M 598.5,778.5 C 599.167,778.5 599.5,778.167 599.5,777.5C 606.475,774.368 612.808,770.201 618.5,765C 619.167,764.333 619.833,764.333 620.5,765C 618.205,768.297 615.538,771.297 612.5,774C 607.565,776.606 602.898,779.606 598.5,783C 597.241,783.982 595.908,784.315 594.5,784C 595.665,782.008 596.998,780.175 598.5,778.5 Z"/></g>
<g><path style="opacity:0.519" fill="#000000" d="M 690.5,769.5 C 692.764,768.781 695.097,768.448 697.5,768.5C 694.233,777.694 696.9,784.694 705.5,789.5C 709.014,787.883 712.681,786.883 716.5,786.5C 716.579,785.07 716.246,783.736 715.5,782.5C 718.698,778.346 720.365,779.013 720.5,784.5C 725.96,783.514 731.293,782.014 736.5,780C 733.487,779.498 730.487,778.998 727.5,778.5C 727.5,777.167 727.5,775.833 727.5,774.5C 736.678,775.564 745.845,775.564 755,774.5C 757.37,774.6 759.203,775.6 760.5,777.5C 747.779,781.348 734.945,785.348 722,789.5C 723.202,799.649 725.369,809.649 728.5,819.5C 727.044,821.825 725.044,822.992 722.5,823C 723.517,821.951 723.684,820.784 723,819.5C 718.505,810.507 713.505,801.84 708,793.5C 705.162,794.675 702.329,794.509 699.5,793C 697.16,791.16 695.16,788.993 693.5,786.5C 679.85,788.942 666.183,791.275 652.5,793.5C 652.513,790.137 654.179,787.97 657.5,787C 668.617,784.126 679.617,780.96 690.5,777.5C 690.5,774.833 690.5,772.167 690.5,769.5 Z M 718.5,800.5 C 718.167,797.167 717.833,793.833 717.5,790.5C 715.692,790.491 714.025,790.991 712.5,792C 714.399,794.988 716.399,797.821 718.5,800.5 Z"/></g>
<g><path style="opacity:0.008" fill="#000000" d="M 599.5,777.5 C 598.833,777.5 598.5,777.833 598.5,778.5C 597.295,777.328 597.295,775.995 598.5,774.5C 599.5,773.167 600.5,773.167 601.5,774.5C 600.807,775.518 600.141,776.518 599.5,777.5 Z"/></g>
<g><path style="opacity:0.008" fill="#000000" d="M 814.5,773.5 C 815.668,775.885 815.001,777.885 812.5,779.5C 811.412,776.992 812.078,774.992 814.5,773.5 Z"/></g>
<g><path style="opacity:0.014" fill="#000000" d="M 762.5,780.5 C 763.573,781.251 763.74,782.251 763,783.5C 761.985,786.21 760.485,788.543 758.5,790.5C 757.628,788.534 757.795,786.534 759,784.5C 760.376,783.295 761.542,781.962 762.5,780.5 Z"/></g>
<g><path style="opacity:0.006" fill="#000000" d="M 812.5,782.5 C 815.047,784.29 814.714,785.956 811.5,787.5C 810.799,785.808 811.133,784.142 812.5,782.5 Z"/></g>
<g><path style="opacity:0.004" fill="#000000" d="M 601.5,788.5 C 601.539,789.756 601.039,790.756 600,791.5C 599.415,790.002 599.915,789.002 601.5,788.5 Z"/></g>
<g><path style="opacity:0.004" fill="#000000" d="M 811.5,793.5 C 812.239,793.369 812.906,793.536 813.5,794C 812.118,798.705 811.451,798.539 811.5,793.5 Z"/></g>
<g><path style="opacity:0.004" fill="#000000" d="M 820.5,793.5 C 821.797,794.849 821.63,796.182 820,797.5C 819.421,796.072 819.588,794.738 820.5,793.5 Z"/></g>
<g><path style="opacity:0.005" fill="#000000" d="M 819.5,801.5 C 822.041,802.623 822.041,803.956 819.5,805.5C 818.708,804.3 818.708,802.967 819.5,801.5 Z"/></g>
<g><path style="opacity:0.007" fill="#000000" d="M 740.5,804.5 C 741.164,807.491 740.164,810.157 737.5,812.5C 737.23,809.667 738.23,807 740.5,804.5 Z"/></g>
<g><path style="opacity:0.005" fill="#000000" d="M 820.5,808.5 C 821.598,809.601 821.765,810.934 821,812.5C 819.951,813.517 818.784,813.684 817.5,813C 818.386,811.385 819.386,809.885 820.5,808.5 Z"/></g>
<g><path style="opacity:0.013" fill="#000000" d="M 737.5,814.5 C 738.621,816.089 738.454,817.756 737,819.5C 736.163,821.007 734.996,821.507 733.5,821C 734.234,818.439 735.567,816.273 737.5,814.5 Z"/></g>
<g><path style="opacity:0.025" fill="#000000" d="M 591.5,819.5 C 592.645,824.542 590.645,827.708 585.5,829C 587.136,825.552 589.136,822.385 591.5,819.5 Z"/></g>
<g><path style="opacity:0.008" fill="#000000" d="M 818.5,820.5 C 819.675,820.281 820.675,820.614 821.5,821.5C 817.875,827.163 816.875,826.829 818.5,820.5 Z"/></g>
<g><path style="opacity:0.01" fill="#000000" d="M 731.5,832.5 C 732.376,832.369 733.043,832.702 733.5,833.5C 732.407,836.688 730.574,839.355 728,841.5C 728.07,838.13 729.237,835.13 731.5,832.5 Z"/></g>
<g><path style="opacity:0.014" fill="#000000" d="M 561.5,836.5 C 562.043,836.56 562.376,836.893 562.5,837.5C 560.139,840.888 558.306,844.554 557,848.5C 554.373,849.783 551.873,851.283 549.5,853C 545.799,853.645 544.965,852.478 547,849.5C 552.46,845.716 557.293,841.383 561.5,836.5 Z"/></g>
<g><path style="opacity:0.005" fill="#000000" d="M 739.5,843.5 C 740.289,843.783 740.956,844.283 741.5,845C 737.302,850.958 736.636,850.458 739.5,843.5 Z"/></g>
<g><path style="opacity:0.004" fill="#000000" d="M 818.5,844.5 C 820.337,844.639 820.67,845.306 819.5,846.5C 818.702,846.043 818.369,845.376 818.5,844.5 Z"/></g>
<g><path style="opacity:0.004" fill="#000000" d="M 755.5,846.5 C 756.497,846.47 757.164,846.97 757.5,848C 755.906,852.314 755.239,851.814 755.5,846.5 Z"/></g>
<g><path style="opacity:0.009" fill="#000000" d="M 819.5,848.5 C 822.052,850.163 821.886,851.83 819,853.5C 818.36,851.735 818.527,850.068 819.5,848.5 Z"/></g>
<g><path style="opacity:0.004" fill="#000000" d="M 724.5,852.5 C 725.797,853.849 725.63,855.182 724,856.5C 723.421,855.072 723.588,853.738 724.5,852.5 Z"/></g>
<g><path style="opacity:0.005" fill="#000000" d="M 566.5,855.5 C 567.239,855.369 567.906,855.536 568.5,856C 567.971,858.429 566.637,860.262 564.5,861.5C 564.167,861 563.833,860.5 563.5,860C 564.315,858.357 565.315,856.857 566.5,855.5 Z"/></g>
<g><path style="opacity:0.006" fill="#000000" d="M 736.5,856.5 C 737.573,857.251 737.74,858.251 737,859.5C 736,860.5 735,861.5 734,862.5C 733.333,861.5 733.333,860.5 734,859.5C 735.045,858.627 735.878,857.627 736.5,856.5 Z"/></g>
<g><path style="opacity:0.004" fill="#000000" d="M 818.5,859.5 C 820.973,859.947 821.14,860.947 819,862.5C 818.517,861.552 818.351,860.552 818.5,859.5 Z"/></g>
<g><path style="opacity:0.021" fill="#000000" d="M 542.5,862.5 C 543.268,866.303 541.768,869.303 538,871.5C 537.308,870.975 536.808,870.308 536.5,869.5C 538.523,867.147 540.523,864.814 542.5,862.5 Z"/></g>
<g><path style="opacity:0.009" fill="#000000" d="M 757.5,864.5 C 758.756,864.461 759.756,864.961 760.5,866C 758.707,867.78 757.04,869.613 755.5,871.5C 754.633,868.857 755.3,866.523 757.5,864.5 Z"/></g>
<g><path style="opacity:0.005" fill="#000000" d="M 816.5,866.5 C 818.984,868.028 818.818,869.694 816,871.5C 815.616,869.803 815.782,868.137 816.5,866.5 Z"/></g>
<g><path style="opacity:0.004" fill="#000000" d="M 708.5,878.5 C 708.688,880.103 708.188,881.437 707,882.5C 706.652,880.86 707.152,879.527 708.5,878.5 Z"/></g>
<g><path style="opacity:0.01" fill="#000000" d="M 753.5,881.5 C 754.675,881.281 755.675,881.614 756.5,882.5C 751.537,890.828 750.537,890.495 753.5,881.5 Z"/></g>
<g><path style="opacity:0.006" fill="#000000" d="M 830.5,888.5 C 833.012,889.216 833.012,890.216 830.5,891.5C 829.438,890.575 829.438,889.575 830.5,888.5 Z"/></g>
<g><path style="opacity:0.004" fill="#000000" d="M 742.5,892.5 C 743.867,894.093 743.534,895.426 741.5,896.5C 741.167,896.333 740.833,896.167 740.5,896C 741.823,895.184 742.489,894.017 742.5,892.5 Z"/></g>
<g><path style="opacity:0.009" fill="#000000" d="M 726.5,894.5 C 727.472,898.059 726.305,901.059 723,903.5C 722.388,900.389 723.221,897.723 725.5,895.5C 726.167,895.5 726.5,895.167 726.5,894.5 Z"/></g>
<g><path style="opacity:0.005" fill="#000000" d="M 516.5,899.5 C 518.337,899.639 518.67,900.306 517.5,901.5C 516.702,901.043 516.369,900.376 516.5,899.5 Z"/></g>
<g><path style="opacity:0.018" fill="#000000" d="M 709.5,910.5 C 710.239,910.369 710.906,910.536 711.5,911C 710.462,914.248 708.795,917.082 706.5,919.5C 706.041,916.206 707.041,913.206 709.5,910.5 Z"/></g>
<g><path style="opacity:0.009" fill="#000000" d="M 814.5,910.5 C 816.346,910.222 817.68,910.889 818.5,912.5C 812.907,916.949 811.573,916.282 814.5,910.5 Z"/></g>
<g><path style="opacity:0.012" fill="#000000" d="M 720.5,914.5 C 721.497,914.47 722.164,914.97 722.5,916C 721.694,919.123 720.027,921.623 717.5,923.5C 717.167,923.333 716.833,923.167 716.5,923C 717.716,920.069 719.05,917.236 720.5,914.5 Z"/></g>
<g><path style="opacity:0.004" fill="#000000" d="M 695.5,925.5 C 696.713,926.497 696.546,927.497 695,928.5C 694.53,927.423 694.697,926.423 695.5,925.5 Z"/></g>
<g><path style="opacity:0.004" fill="#000000" d="M 513.5,927.5 C 514.621,929.089 514.454,930.756 513,932.5C 512.36,930.735 512.527,929.068 513.5,927.5 Z"/></g>
<g><path style="opacity:0.011" fill="#000000" d="M 704.5,931.5 C 704.917,935.078 703.75,938.411 701,941.5C 700.729,937.699 701.896,934.366 704.5,931.5 Z"/></g>
<g><path style="opacity:0.016" fill="#000000" d="M 812.5,935.5 C 814.176,936.183 814.843,937.517 814.5,939.5C 813.5,939.5 812.5,939.5 811.5,939.5C 811.433,938.041 811.766,936.708 812.5,935.5 Z"/></g>
<g><path style="opacity:0.004" fill="#000000" d="M 729.5,942.5 C 730.797,943.849 730.63,945.182 729,946.5C 728.421,945.072 728.588,943.738 729.5,942.5 Z"/></g>
<g><path style="opacity:0.004" fill="#000000" d="M 802.5,951.5 C 803.797,952.849 803.63,954.182 802,955.5C 801.421,954.072 801.588,952.738 802.5,951.5 Z"/></g>
<g><path style="opacity:0.498" fill="#000000" d="M 675.5,1011.5 C 676.482,1010.86 677.482,1010.19 678.5,1009.5C 678.833,1010 679.167,1010.5 679.5,1011C 678.111,1013.92 676.945,1016.75 676,1019.5C 683.931,1026.77 692.431,1033.27 701.5,1039C 705.014,1041.13 705.18,1043.29 702,1045.5C 701.15,1044.58 700.15,1044.58 699,1045.5C 693.702,1043.02 688.536,1040.36 683.5,1037.5C 683.276,1039.79 682.609,1041.95 681.5,1044C 683.261,1047.43 685.428,1050.6 688,1053.5C 689.004,1058.73 687.17,1060.23 682.5,1058C 679.354,1055.69 676.354,1053.19 673.5,1050.5C 669.506,1055.33 665.673,1060.33 662,1065.5C 661.82,1062.69 662.487,1060.02 664,1057.5C 666.872,1054.96 669.372,1052.13 671.5,1049C 666.302,1043.47 660.802,1038.3 655,1033.5C 654.13,1034.11 653.63,1034.94 653.5,1036C 654.482,1036.38 655.148,1037.21 655.5,1038.5C 655.444,1039.74 654.944,1040.74 654,1041.5C 652.439,1038.34 652.272,1035.17 653.5,1032C 652.328,1029.95 650.661,1029.28 648.5,1030C 633.84,1042.33 620.173,1055.66 607.5,1070C 614.969,1074.64 622.302,1079.47 629.5,1084.5C 631.018,1082.38 632.018,1080.05 632.5,1077.5C 632.5,1079.83 632.5,1082.17 632.5,1084.5C 635.274,1083.28 637.941,1081.78 640.5,1080C 644.457,1080.4 647.29,1078.9 649,1075.5C 649.687,1077.92 649.187,1080.09 647.5,1082C 640.894,1083.61 636.56,1087.61 634.5,1094C 637.705,1095.69 638.039,1097.69 635.5,1100C 637.672,1102.49 638.506,1105.33 638,1108.5C 633.641,1108.09 629.975,1109.76 627,1113.5C 626.161,1116.14 626.661,1118.47 628.5,1120.5C 627.685,1122.28 626.518,1122.94 625,1122.5C 624.784,1124.38 624.117,1126.05 623,1127.5C 622.498,1123.76 622.498,1120.09 623,1116.5C 619.833,1119 616.667,1121.5 613.5,1124C 611.393,1124.85 610.059,1124.19 609.5,1122C 612.426,1115.06 616.926,1109.23 623,1104.5C 623.688,1103.67 623.521,1103 622.5,1102.5C 605.387,1105.41 588.387,1108.41 571.5,1111.5C 571.744,1108.74 573.077,1106.57 575.5,1105C 592.154,1100.67 608.821,1096.34 625.5,1092C 618.794,1085.63 611.794,1079.63 604.5,1074C 603.207,1073.51 601.873,1073.34 600.5,1073.5C 598.728,1069.47 599.228,1065.81 602,1062.5C 610.271,1051.73 619.105,1041.39 628.5,1031.5C 628.167,1031.17 627.833,1030.83 627.5,1030.5C 612.833,1035.58 597.833,1039.25 582.5,1041.5C 582.5,1039.5 582.5,1037.5 582.5,1035.5C 591.453,1031.2 600.786,1027.7 610.5,1025C 613.167,1023.33 615.833,1021.67 618.5,1020C 602.118,1018.27 585.785,1016.27 569.5,1014C 567.893,1012.95 567.227,1011.45 567.5,1009.5C 585.306,1009.64 603.139,1010.31 621,1011.5C 625.167,1011.33 629.333,1011.17 633.5,1011C 634.328,1010.09 635.328,1009.42 636.5,1009C 630.127,997.086 623.627,985.253 617,973.5C 614.965,970.439 613.799,967.105 613.5,963.5C 614.978,963.238 616.311,963.571 617.5,964.5C 619.807,970.139 623.307,974.805 628,978.5C 632.103,985.748 635.936,993.082 639.5,1000.5C 644.941,992.952 652.274,990.119 661.5,992C 662.727,993.587 662.394,994.921 660.5,996C 661.931,996.465 663.097,997.299 664,998.5C 677.93,986.568 692.43,975.401 707.5,965C 709.167,962.667 710.833,960.333 712.5,958C 713.793,957.51 715.127,957.343 716.5,957.5C 716.245,960.016 715.411,962.35 714,964.5C 701.594,980.724 688.761,996.39 675.5,1011.5 Z M 694.5,979.5 C 683.197,988.492 671.864,997.492 660.5,1006.5C 661.945,1008.06 663.611,1009.4 665.5,1010.5C 671.393,1007.81 675.56,1003.47 678,997.5C 679.309,995.109 680.309,995.109 681,997.5C 686.167,991.667 691.333,985.833 696.5,980C 695.906,979.536 695.239,979.369 694.5,979.5 Z M 622.5,1046.5 C 630,1039.84 637.667,1033.34 645.5,1027C 646.167,1025.33 646.833,1023.67 647.5,1022C 650,1022.17 652.5,1022.33 655,1022.5C 655.667,1021.17 656.333,1019.83 657,1018.5C 657.333,1018.83 657.667,1019.17 658,1019.5C 659.167,1018.33 660.333,1017.17 661.5,1016C 660.809,1014.93 660.309,1013.77 660,1012.5C 656.93,1010.55 654.43,1008.05 652.5,1005C 654.356,1003.45 656.356,1002.28 658.5,1001.5C 657.687,1000.19 656.687,999.019 655.5,998C 650.888,996.696 647.055,998.196 644,1002.5C 641.581,1004.84 641.081,1007.5 642.5,1010.5C 647.858,1012.23 649.025,1015.57 646,1020.5C 637.255,1028.41 629.422,1037.07 622.5,1046.5 Z M 675.5,1011.5 C 672.978,1011.13 670.978,1011.96 669.5,1014C 672.651,1017.11 674.651,1016.28 675.5,1011.5 Z M 637.5,1015.5 C 637.709,1016.92 638.209,1018.26 639,1019.5C 642.708,1016.34 642.208,1015.01 637.5,1015.5 Z M 662.5,1016.5 C 661.708,1017.97 661.708,1019.3 662.5,1020.5C 677.79,1028.72 678.79,1027.55 665.5,1017C 664.552,1016.52 663.552,1016.35 662.5,1016.5 Z M 609.5,1030.5 C 618.373,1029.43 626.706,1026.76 634.5,1022.5C 633.009,1020.99 631.176,1019.99 629,1019.5C 622.519,1023.32 616.019,1026.99 609.5,1030.5 Z M 659.5,1024.5 C 658.71,1025.79 657.71,1026.96 656.5,1028C 660,1031.5 663.5,1035 667,1038.5C 667.798,1035.46 668.965,1032.62 670.5,1030C 666.78,1028.14 663.114,1026.31 659.5,1024.5 Z M 678.5,1028.5 C 678.217,1027.71 677.717,1027.04 677,1026.5C 676.472,1027.82 676.972,1028.48 678.5,1028.5 Z M 678.5,1028.5 C 680.027,1028.43 681.027,1029.09 681.5,1030.5C 679.973,1030.57 678.973,1029.91 678.5,1028.5 Z M 683.5,1037.5 C 672.794,1030.03 671.461,1031.03 679.5,1040.5C 680.852,1039.48 682.185,1038.48 683.5,1037.5 Z M 676.5,1046.5 C 675.277,1043.73 673.777,1041.06 672,1038.5C 670.703,1037.22 669.536,1037.38 668.5,1039C 671.036,1041.7 673.703,1044.2 676.5,1046.5 Z"/></g>
<g><path style="opacity:0.014" fill="#000000" d="M 566.5,959.5 C 567.652,960.834 568.652,962.334 569.5,964C 567.91,967.013 566.743,970.18 566,973.5C 565.436,968.806 565.603,964.14 566.5,959.5 Z"/></g>
<g><path style="opacity:0.005" fill="#000000" d="M 696.5,961.5 C 697.27,964.383 696.437,967.05 694,969.5C 694.107,966.676 694.94,964.009 696.5,961.5 Z"/></g>
<g><path style="opacity:0.012" fill="#000000" d="M 801.5,961.5 C 805.582,963.312 805.415,964.979 801,966.5C 800.5,966.167 800,965.833 799.5,965.5C 800.18,964.14 800.847,962.807 801.5,961.5 Z"/></g>
<g><path style="opacity:0.004" fill="#000000" d="M 793.5,967.5 C 794.688,969.496 794.021,970.329 791.5,970C 792.381,969.292 793.047,968.458 793.5,967.5 Z"/></g>
<g><path style="opacity:0.023" fill="#000000" d="M 799.5,974.5 C 800.5,974.5 801.5,974.5 802.5,974.5C 802.55,976.59 801.55,977.923 799.5,978.5C 798.374,977.192 798.374,975.858 799.5,974.5 Z"/></g>
<g><path style="opacity:0.005" fill="#000000" d="M 792.5,978.5 C 794.115,981.31 793.282,983.31 790,984.5C 789.333,983.5 789.333,982.5 790,981.5C 791.045,980.627 791.878,979.627 792.5,978.5 Z"/></g>
<g><path style="opacity:0.008" fill="#000000" d="M 1021.5,978.5 C 1023.25,979.249 1024.25,980.583 1024.5,982.5C 1023.99,984.884 1023.32,987.217 1022.5,989.5C 1021.68,990.386 1020.68,990.719 1019.5,990.5C 1019.53,986.382 1020.2,982.382 1021.5,978.5 Z"/></g>
<g><path style="opacity:0.007" fill="#000000" d="M 564.5,983.5 C 567.423,987.243 568.257,991.576 567,996.5C 565.37,994.769 564.203,992.769 563.5,990.5C 563.997,988.182 564.33,985.848 564.5,983.5 Z"/></g>
<g><path style="opacity:0.023" fill="#000000" d="M 790.5,990.5 C 791.695,990.866 792.361,991.699 792.5,993C 791.381,994.876 789.714,995.709 787.5,995.5C 787.31,993.041 788.31,991.374 790.5,990.5 Z"/></g>
<g><path style="opacity:0.01" fill="#000000" d="M 700.5,996.5 C 701.239,996.369 701.906,996.536 702.5,997C 701.373,1000.76 699.373,1003.93 696.5,1006.5C 696.067,1002.67 697.4,999.332 700.5,996.5 Z"/></g>
<g><path style="opacity:0.025" fill="#000000" d="M 787.5,1000.5 C 788.5,1000.5 789.5,1000.5 790.5,1000.5C 790.5,1001.83 790.5,1003.17 790.5,1004.5C 785.494,1005.39 784.494,1004.06 787.5,1000.5 Z"/></g>
<g><path style="opacity:0.006" fill="#000000" d="M 780.5,1005.5 C 780.114,1007.94 778.947,1009.94 777,1011.5C 775.878,1008.13 777.045,1006.13 780.5,1005.5 Z"/></g>
<g><path style="opacity:0.005" fill="#000000" d="M 786.5,1009.5 C 788.465,1009.95 788.798,1010.95 787.5,1012.5C 786.614,1011.68 786.281,1010.68 786.5,1009.5 Z"/></g>
<g><path style="opacity:0.004" fill="#000000" d="M 777.5,1013.5 C 779.892,1014.74 779.725,1016.08 777,1017.5C 776.421,1016.07 776.588,1014.74 777.5,1013.5 Z"/></g>
<g><path style="opacity:0.013" fill="#000000" d="M 695.5,1019.5 C 697.61,1022.17 697.11,1024.84 694,1027.5C 693.282,1024.59 693.782,1021.93 695.5,1019.5 Z"/></g>
<g><path style="opacity:0.077" fill="#000000" d="M 777.5,1030.5 C 778.627,1031.12 779.627,1031.96 780.5,1033C 777.833,1035.53 774.833,1037.36 771.5,1038.5C 772.345,1034.99 774.345,1032.32 777.5,1030.5 Z"/></g>
<g><path style="opacity:0.004" fill="#000000" d="M 537.5,1034.5 C 539.008,1037.41 538.175,1039.74 535,1041.5C 534.683,1038.79 535.516,1036.46 537.5,1034.5 Z"/></g>
<g><path style="opacity:0.02" fill="#000000" d="M 563.5,1037.5 C 564.791,1043.43 566.291,1049.43 568,1055.5C 568.333,1060.17 568.667,1064.83 569,1069.5C 571.846,1072.92 572.18,1076.59 570,1080.5C 565.956,1066.45 563.789,1052.11 563.5,1037.5 Z"/></g>
<g><path style="opacity:0.01" fill="#000000" d="M 778.5,1038.5 C 779.5,1038.5 780.5,1038.5 781.5,1038.5C 781.5,1039.83 781.5,1041.17 781.5,1042.5C 778.735,1042.8 776.235,1043.8 774,1045.5C 773.333,1044.17 773.333,1042.83 774,1041.5C 775.652,1040.6 777.152,1039.6 778.5,1038.5 Z"/></g>
<g><path style="opacity:0.006" fill="#000000" d="M 549.5,1052.5 C 551.337,1052.64 551.67,1053.31 550.5,1054.5C 549.702,1054.04 549.369,1053.38 549.5,1052.5 Z"/></g>
<g><path style="opacity:0.009" fill="#000000" d="M 773.5,1060.5 C 777.123,1061.41 777.29,1062.74 774,1064.5C 772.489,1063.44 772.323,1062.1 773.5,1060.5 Z"/></g>
<g><path style="opacity:0.012" fill="#000000" d="M 539.5,1063.5 C 540.613,1064.95 540.78,1066.61 540,1068.5C 537.097,1070.95 534.43,1073.61 532,1076.5C 530.635,1075.41 530.301,1074.07 531,1072.5C 532.532,1070.44 534.532,1069.1 537,1068.5C 537.847,1066.81 538.68,1065.14 539.5,1063.5 Z"/></g>
<g><path style="opacity:0.005" fill="#000000" d="M 678.5,1063.5 C 679.376,1063.37 680.043,1063.7 680.5,1064.5C 679.124,1068.05 677.124,1071.21 674.5,1074C 673.275,1074.56 672.275,1074.23 671.5,1073C 673.965,1069.89 676.298,1066.73 678.5,1063.5 Z"/></g>
<g><path style="opacity:0.013" fill="#000000" d="M 648.5,1065.5 C 650.984,1067.03 650.818,1068.69 648,1070.5C 647.36,1068.73 647.527,1067.07 648.5,1065.5 Z"/></g>
<g><path style="opacity:0.004" fill="#000000" d="M 757.5,1082.5 C 758.376,1082.37 759.043,1082.7 759.5,1083.5C 755.421,1088.9 754.755,1088.57 757.5,1082.5 Z"/></g>
<g><path style="opacity:0.01" fill="#000000" d="M 675.5,1087.5 C 676.015,1092.51 674.182,1096.84 670,1100.5C 670.754,1095.75 672.587,1091.41 675.5,1087.5 Z"/></g>
<g><path style="opacity:0.008" fill="#000000" d="M 519.5,1093.5 C 522.293,1093.74 522.793,1094.74 521,1096.5C 519.961,1095.76 519.461,1094.76 519.5,1093.5 Z"/></g>
<g><path style="opacity:0.004" fill="#000000" d="M 764.5,1101.5 C 766.337,1101.64 766.67,1102.31 765.5,1103.5C 764.702,1103.04 764.369,1102.38 764.5,1101.5 Z"/></g>
<g><path style="opacity:0.006" fill="#000000" d="M 668.5,1111.5 C 670.973,1111.95 671.14,1112.95 669,1114.5C 668.517,1113.55 668.351,1112.55 668.5,1111.5 Z"/></g>
<g><path style="opacity:0.004" fill="#000000" d="M 674.5,1116.5 C 674.215,1114.71 674.548,1113.05 675.5,1111.5C 676.634,1113.44 676.3,1115.11 674.5,1116.5 Z"/></g>
<g><path style="opacity:0.009" fill="#000000" d="M 637.5,1131.5 C 639.586,1132.15 640.586,1133.65 640.5,1136C 640.612,1137.66 639.946,1138.83 638.5,1139.5C 637.52,1136.91 637.187,1134.25 637.5,1131.5 Z"/></g>
<g><path style="opacity:0.006" fill="#000000" d="M 660.5,1137.5 C 660.238,1136.02 660.571,1134.69 661.5,1133.5C 662.809,1135.24 662.476,1136.57 660.5,1137.5 Z"/></g>
<g><path style="opacity:0.014" fill="#000000" d="M 630.5,1152.5 C 633.163,1154.11 633.663,1156.11 632,1158.5C 630.681,1156.75 630.181,1154.75 630.5,1152.5 Z"/></g>
<g><path style="opacity:0.007" fill="#000000" d="M 744.5,1156.5 C 743.766,1155.29 743.433,1153.96 743.5,1152.5C 746.084,1152.57 748.084,1153.74 749.5,1156C 747.866,1156.49 746.199,1156.66 744.5,1156.5 Z"/></g>
<g><path style="opacity:0.006" fill="#000000" d="M 637.5,1165.5 C 639.924,1167.23 640.09,1169.23 638,1171.5C 636.2,1169.63 636.034,1167.63 637.5,1165.5 Z"/></g>
</svg>
